<?xml version="1.0" encoding="UTF-8" standalone="no"?>
<!DOCTYPE svg PUBLIC "-//W3C//DTD SVG 1.1//EN"
 "http://www.w3.org/Graphics/SVG/1.1/DTD/svg11.dtd">
<!-- Generated by graphviz version 2.40.1 (0)
 -->
<!-- Title: libmutt Pages: 1 -->
<svg width="580pt" height="436pt"
 viewBox="0.00 0.00 579.50 436.00" xmlns="http://www.w3.org/2000/svg" xmlns:xlink="http://www.w3.org/1999/xlink">
<g id="graph0" class="graph" transform="scale(1 1) rotate(0) translate(4 432)">
<title>libmutt</title>
<polygon fill="#ffffff" stroke="transparent" points="-4,4 -4,-432 575.5,-432 575.5,4 -4,4"/>
<!-- base64 -->
<g id="node1" class="node">
<title>base64</title>
<path fill="none" stroke="#000000" stroke-width="1.5" d="M7,-290.5C7,-290.5 52,-290.5 52,-290.5 55.5,-290.5 59,-294 59,-297.5 59,-297.5 59,-304.5 59,-304.5 59,-308 55.5,-311.5 52,-311.5 52,-311.5 7,-311.5 7,-311.5 3.5,-311.5 0,-308 0,-304.5 0,-304.5 0,-297.5 0,-297.5 0,-294 3.5,-290.5 7,-290.5"/>
<text text-anchor="middle" x="29.5" y="-297.9" font-family="Times,serif" font-size="12.00" fill="#000000">base64</text>
</g>
<!-- buffer -->
<g id="node2" class="node">
<title>buffer</title>
<path fill="none" stroke="#000000" stroke-width="1.5" d="M9.5,-232.5C9.5,-232.5 49.5,-232.5 49.5,-232.5 53,-232.5 56.5,-236 56.5,-239.5 56.5,-239.5 56.5,-246.5 56.5,-246.5 56.5,-250 53,-253.5 49.5,-253.5 49.5,-253.5 9.5,-253.5 9.5,-253.5 6,-253.5 2.5,-250 2.5,-246.5 2.5,-246.5 2.5,-239.5 2.5,-239.5 2.5,-236 6,-232.5 9.5,-232.5"/>
<text text-anchor="middle" x="29.5" y="-239.9" font-family="Times,serif" font-size="12.00" fill="#000000">buffer</text>
</g>
<!-- base64&#45;&gt;buffer -->
<g id="edge1" class="edge">
<title>base64&#45;&gt;buffer</title>
<path fill="none" stroke="#000000" d="M29.5,-290.3619C29.5,-281.532 29.5,-268.844 29.5,-258.8224"/>
<polygon fill="#000000" stroke="#000000" points="31.2501,-258.5706 29.5,-253.5707 27.7501,-258.5707 31.2501,-258.5706"/>
</g>
<!-- string -->
<g id="node3" class="node">
<title>string</title>
<path fill="none" stroke="#000000" stroke-width="1.5" d="M291.5,-174.5C291.5,-174.5 331.5,-174.5 331.5,-174.5 335,-174.5 338.5,-178 338.5,-181.5 338.5,-181.5 338.5,-188.5 338.5,-188.5 338.5,-192 335,-195.5 331.5,-195.5 331.5,-195.5 291.5,-195.5 291.5,-195.5 288,-195.5 284.5,-192 284.5,-188.5 284.5,-188.5 284.5,-181.5 284.5,-181.5 284.5,-178 288,-174.5 291.5,-174.5"/>
<text text-anchor="middle" x="311.5" y="-181.9" font-family="Times,serif" font-size="12.00" fill="#000000">string</text>
</g>
<!-- buffer&#45;&gt;string -->
<g id="edge2" class="edge">
<title>buffer&#45;&gt;string</title>
<path fill="none" stroke="#000000" d="M56.5058,-233.9245C58.8606,-233.2361 61.2158,-232.5835 63.5,-232 140.1062,-212.4312 231.9182,-197.1 279.45,-189.7535"/>
<polygon fill="#000000" stroke="#000000" points="279.7905,-191.4718 284.4666,-188.9824 279.2587,-188.0124 279.7905,-191.4718"/>
</g>
<!-- memory -->
<g id="node18" class="node">
<title>memory</title>
<path fill="none" stroke="#000000" stroke-width="1.5" d="M340.5,-116.5C340.5,-116.5 392.5,-116.5 392.5,-116.5 396,-116.5 399.5,-120 399.5,-123.5 399.5,-123.5 399.5,-130.5 399.5,-130.5 399.5,-134 396,-137.5 392.5,-137.5 392.5,-137.5 340.5,-137.5 340.5,-137.5 337,-137.5 333.5,-134 333.5,-130.5 333.5,-130.5 333.5,-123.5 333.5,-123.5 333.5,-120 337,-116.5 340.5,-116.5"/>
<text text-anchor="middle" x="366.5" y="-123.9" font-family="Times,serif" font-size="12.00" fill="#000000">memory</text>
</g>
<!-- string&#45;&gt;memory -->
<g id="edge25" class="edge">
<title>string&#45;&gt;memory</title>
<path fill="none" stroke="#000000" d="M321.5878,-174.3619C330.3487,-165.1232 343.1147,-151.6609 352.799,-141.4483"/>
<polygon fill="#000000" stroke="#000000" points="354.3055,-142.403 356.4761,-137.5707 351.7658,-139.9946 354.3055,-142.403"/>
</g>
<!-- charset -->
<g id="node4" class="node">
<title>charset</title>
<path fill="none" stroke="#000000" stroke-width="1.5" d="M215.5,-232.5C215.5,-232.5 263.5,-232.5 263.5,-232.5 267,-232.5 270.5,-236 270.5,-239.5 270.5,-239.5 270.5,-246.5 270.5,-246.5 270.5,-250 267,-253.5 263.5,-253.5 263.5,-253.5 215.5,-253.5 215.5,-253.5 212,-253.5 208.5,-250 208.5,-246.5 208.5,-246.5 208.5,-239.5 208.5,-239.5 208.5,-236 212,-232.5 215.5,-232.5"/>
<text text-anchor="middle" x="239.5" y="-239.9" font-family="Times,serif" font-size="12.00" fill="#000000">charset</text>
</g>
<!-- regex -->
<g id="node5" class="node">
<title>regex</title>
<path fill="none" stroke="#000000" stroke-width="1.5" d="M242.5,-348.5C242.5,-348.5 282.5,-348.5 282.5,-348.5 286,-348.5 289.5,-352 289.5,-355.5 289.5,-355.5 289.5,-362.5 289.5,-362.5 289.5,-366 286,-369.5 282.5,-369.5 282.5,-369.5 242.5,-369.5 242.5,-369.5 239,-369.5 235.5,-366 235.5,-362.5 235.5,-362.5 235.5,-355.5 235.5,-355.5 235.5,-352 239,-348.5 242.5,-348.5"/>
<text text-anchor="middle" x="262.5" y="-355.9" font-family="Times,serif" font-size="12.00" fill="#000000">regex</text>
</g>
<!-- charset&#45;&gt;regex -->
<g id="edge3" class="edge">
<title>charset&#45;&gt;regex</title>
<path fill="none" stroke="#000000" d="M241.6174,-253.6792C245.6869,-274.2033 254.6172,-319.2434 259.3738,-343.2329"/>
<polygon fill="#000000" stroke="#000000" points="257.6883,-343.7308 260.3774,-348.2949 261.1215,-343.05 257.6883,-343.7308"/>
</g>
<!-- mbyte -->
<g id="node17" class="node">
<title>mbyte</title>
<path fill="none" stroke="#000000" stroke-width="1.5" d="M193.5,-290.5C193.5,-290.5 233.5,-290.5 233.5,-290.5 237,-290.5 240.5,-294 240.5,-297.5 240.5,-297.5 240.5,-304.5 240.5,-304.5 240.5,-308 237,-311.5 233.5,-311.5 233.5,-311.5 193.5,-311.5 193.5,-311.5 190,-311.5 186.5,-308 186.5,-304.5 186.5,-304.5 186.5,-297.5 186.5,-297.5 186.5,-294 190,-290.5 193.5,-290.5"/>
<text text-anchor="middle" x="213.5" y="-297.9" font-family="Times,serif" font-size="12.00" fill="#000000">mbyte</text>
</g>
<!-- regex&#45;&gt;mbyte -->
<g id="edge23" class="edge">
<title>regex&#45;&gt;mbyte</title>
<path fill="none" stroke="#000000" d="M253.5126,-348.3619C245.7075,-339.1232 234.3342,-325.6609 225.7063,-315.4483"/>
<polygon fill="#000000" stroke="#000000" points="226.994,-314.2607 222.4304,-311.5707 224.3204,-316.5195 226.994,-314.2607"/>
</g>
<!-- date -->
<g id="node6" class="node">
<title>date</title>
<path fill="none" stroke="#000000" stroke-width="1.5" d="M77.5,-232.5C77.5,-232.5 117.5,-232.5 117.5,-232.5 121,-232.5 124.5,-236 124.5,-239.5 124.5,-239.5 124.5,-246.5 124.5,-246.5 124.5,-250 121,-253.5 117.5,-253.5 117.5,-253.5 77.5,-253.5 77.5,-253.5 74,-253.5 70.5,-250 70.5,-246.5 70.5,-246.5 70.5,-239.5 70.5,-239.5 70.5,-236 74,-232.5 77.5,-232.5"/>
<text text-anchor="middle" x="97.5" y="-239.9" font-family="Times,serif" font-size="12.00" fill="#000000">date</text>
</g>
<!-- date&#45;&gt;string -->
<g id="edge4" class="edge">
<title>date&#45;&gt;string</title>
<path fill="none" stroke="#000000" d="M124.5519,-234.093C126.8967,-233.368 129.237,-232.6609 131.5,-232 182.7681,-217.0267 242.9102,-201.7861 279.069,-192.8715"/>
<polygon fill="#000000" stroke="#000000" points="279.7888,-194.4967 284.226,-191.6029 278.9527,-191.098 279.7888,-194.4967"/>
</g>
<!-- envlist -->
<g id="node7" class="node">
<title>envlist</title>
<path fill="none" stroke="#000000" stroke-width="1.5" d="M145.5,-232.5C145.5,-232.5 187.5,-232.5 187.5,-232.5 191,-232.5 194.5,-236 194.5,-239.5 194.5,-239.5 194.5,-246.5 194.5,-246.5 194.5,-250 191,-253.5 187.5,-253.5 187.5,-253.5 145.5,-253.5 145.5,-253.5 142,-253.5 138.5,-250 138.5,-246.5 138.5,-246.5 138.5,-239.5 138.5,-239.5 138.5,-236 142,-232.5 145.5,-232.5"/>
<text text-anchor="middle" x="166.5" y="-239.9" font-family="Times,serif" font-size="12.00" fill="#000000">envlist</text>
</g>
<!-- envlist&#45;&gt;string -->
<g id="edge5" class="edge">
<title>envlist&#45;&gt;string</title>
<path fill="none" stroke="#000000" d="M192.7584,-232.4966C217.3438,-222.6625 254.1053,-207.9579 280.2033,-197.5187"/>
<polygon fill="#000000" stroke="#000000" points="280.9545,-199.1031 284.947,-195.6212 279.6546,-195.8534 280.9545,-199.1031"/>
</g>
<!-- file -->
<g id="node8" class="node">
<title>file</title>
<path fill="none" stroke="#000000" stroke-width="1.5" d="M238.5,-.5C238.5,-.5 278.5,-.5 278.5,-.5 282,-.5 285.5,-4 285.5,-7.5 285.5,-7.5 285.5,-14.5 285.5,-14.5 285.5,-18 282,-21.5 278.5,-21.5 278.5,-21.5 238.5,-21.5 238.5,-21.5 235,-21.5 231.5,-18 231.5,-14.5 231.5,-14.5 231.5,-7.5 231.5,-7.5 231.5,-4 235,-.5 238.5,-.5"/>
<text text-anchor="middle" x="258.5" y="-7.9" font-family="Times,serif" font-size="12.00" fill="#000000">file</text>
</g>
<!-- file&#45;&gt;string -->
<g id="edge6" class="edge">
<title>file&#45;&gt;string</title>
<path fill="none" stroke="#000000" d="M261.8286,-21.9277C270.8997,-51.7086 296.0842,-134.3898 306.6918,-169.2146"/>
<polygon fill="#000000" stroke="#000000" points="305.1334,-170.1043 308.2644,-174.3774 308.4815,-169.0845 305.1334,-170.1043"/>
</g>
<!-- group -->
<g id="node9" class="node">
<title>group</title>
<path fill="none" stroke="#000000" stroke-width="1.5" d="M364.5,-406.5C364.5,-406.5 404.5,-406.5 404.5,-406.5 408,-406.5 411.5,-410 411.5,-413.5 411.5,-413.5 411.5,-420.5 411.5,-420.5 411.5,-424 408,-427.5 404.5,-427.5 404.5,-427.5 364.5,-427.5 364.5,-427.5 361,-427.5 357.5,-424 357.5,-420.5 357.5,-420.5 357.5,-413.5 357.5,-413.5 357.5,-410 361,-406.5 364.5,-406.5"/>
<text text-anchor="middle" x="384.5" y="-413.9" font-family="Times,serif" font-size="12.00" fill="#000000">group</text>
</g>
<!-- group&#45;&gt;regex -->
<g id="edge8" class="edge">
<title>group&#45;&gt;regex</title>
<path fill="none" stroke="#000000" d="M362.4067,-406.4966C341.8927,-396.7441 311.3034,-382.2016 289.3809,-371.7794"/>
<polygon fill="#000000" stroke="#000000" points="290.1083,-370.1876 284.8412,-369.6212 288.6055,-373.3486 290.1083,-370.1876"/>
</g>
<!-- hash -->
<g id="node10" class="node">
<title>hash</title>
<path fill="none" stroke="#000000" stroke-width="1.5" d="M511.5,-232.5C511.5,-232.5 551.5,-232.5 551.5,-232.5 555,-232.5 558.5,-236 558.5,-239.5 558.5,-239.5 558.5,-246.5 558.5,-246.5 558.5,-250 555,-253.5 551.5,-253.5 551.5,-253.5 511.5,-253.5 511.5,-253.5 508,-253.5 504.5,-250 504.5,-246.5 504.5,-246.5 504.5,-239.5 504.5,-239.5 504.5,-236 508,-232.5 511.5,-232.5"/>
<text text-anchor="middle" x="531.5" y="-239.9" font-family="Times,serif" font-size="12.00" fill="#000000">hash</text>
</g>
<!-- group&#45;&gt;hash -->
<g id="edge7" class="edge">
<title>group&#45;&gt;hash</title>
<path fill="none" stroke="#000000" d="M393.4742,-406.3774C418.6325,-376.5982 489.8926,-292.2496 518.9407,-257.8661"/>
<polygon fill="#000000" stroke="#000000" points="520.378,-258.8765 522.268,-253.9277 517.7044,-256.6178 520.378,-258.8765"/>
</g>
<!-- hash&#45;&gt;string -->
<g id="edge9" class="edge">
<title>hash&#45;&gt;string</title>
<path fill="none" stroke="#000000" d="M504.4538,-234.0735C502.1077,-233.3528 499.7656,-232.652 497.5,-232 444.1122,-216.6363 381.3338,-201.3407 344.0657,-192.5466"/>
<polygon fill="#000000" stroke="#000000" points="344.0244,-190.7392 338.7564,-191.2971 343.2225,-194.1461 344.0244,-190.7392"/>
</g>
<!-- history -->
<g id="node11" class="node">
<title>history</title>
<path fill="none" stroke="#000000" stroke-width="1.5" d="M386,-290.5C386,-290.5 431,-290.5 431,-290.5 434.5,-290.5 438,-294 438,-297.5 438,-297.5 438,-304.5 438,-304.5 438,-308 434.5,-311.5 431,-311.5 431,-311.5 386,-311.5 386,-311.5 382.5,-311.5 379,-308 379,-304.5 379,-304.5 379,-297.5 379,-297.5 379,-294 382.5,-290.5 386,-290.5"/>
<text text-anchor="middle" x="408.5" y="-297.9" font-family="Times,serif" font-size="12.00" fill="#000000">history</text>
</g>
<!-- history&#45;&gt;charset -->
<g id="edge10" class="edge">
<title>history&#45;&gt;charset</title>
<path fill="none" stroke="#000000" d="M378.6752,-290.7643C349.7123,-280.8243 305.7311,-265.7302 274.9841,-255.178"/>
<polygon fill="#000000" stroke="#000000" points="275.4647,-253.4928 270.1674,-253.5249 274.3285,-256.8033 275.4647,-253.4928"/>
</g>
<!-- history&#45;&gt;hash -->
<g id="edge11" class="edge">
<title>history&#45;&gt;hash</title>
<path fill="none" stroke="#000000" d="M430.7744,-290.4966C451.4565,-280.7441 482.2966,-266.2016 504.3988,-255.7794"/>
<polygon fill="#000000" stroke="#000000" points="505.1997,-257.3367 508.9757,-253.6212 503.7069,-254.1709 505.1997,-257.3367"/>
</g>
<!-- list -->
<g id="node12" class="node">
<title>list</title>
<path fill="none" stroke="#000000" stroke-width="1.5" d="M291.5,-232.5C291.5,-232.5 331.5,-232.5 331.5,-232.5 335,-232.5 338.5,-236 338.5,-239.5 338.5,-239.5 338.5,-246.5 338.5,-246.5 338.5,-250 335,-253.5 331.5,-253.5 331.5,-253.5 291.5,-253.5 291.5,-253.5 288,-253.5 284.5,-250 284.5,-246.5 284.5,-246.5 284.5,-239.5 284.5,-239.5 284.5,-236 288,-232.5 291.5,-232.5"/>
<text text-anchor="middle" x="311.5" y="-239.9" font-family="Times,serif" font-size="12.00" fill="#000000">list</text>
</g>
<!-- list&#45;&gt;string -->
<g id="edge12" class="edge">
<title>list&#45;&gt;string</title>
<path fill="none" stroke="#000000" d="M311.5,-232.3619C311.5,-223.532 311.5,-210.844 311.5,-200.8224"/>
<polygon fill="#000000" stroke="#000000" points="313.2501,-200.5706 311.5,-195.5707 309.7501,-200.5707 313.2501,-200.5706"/>
</g>
<!-- logging -->
<g id="node13" class="node">
<title>logging</title>
<path fill="none" stroke="#000000" stroke-width="1.5" d="M302.5,-58.5C302.5,-58.5 350.5,-58.5 350.5,-58.5 354,-58.5 357.5,-62 357.5,-65.5 357.5,-65.5 357.5,-72.5 357.5,-72.5 357.5,-76 354,-79.5 350.5,-79.5 350.5,-79.5 302.5,-79.5 302.5,-79.5 299,-79.5 295.5,-76 295.5,-72.5 295.5,-72.5 295.5,-65.5 295.5,-65.5 295.5,-62 299,-58.5 302.5,-58.5"/>
<text text-anchor="middle" x="326.5" y="-65.9" font-family="Times,serif" font-size="12.00" fill="#000000">logging</text>
</g>
<!-- logging&#45;&gt;string -->
<g id="edge16" class="edge">
<title>logging&#45;&gt;string</title>
<path fill="none" stroke="#000000" d="M325.1191,-79.6792C322.4651,-100.2033 316.6409,-145.2434 313.5389,-169.2329"/>
<polygon fill="#000000" stroke="#000000" points="311.79,-169.1118 312.8843,-174.2949 315.2611,-169.5607 311.79,-169.1118"/>
</g>
<!-- logging&#45;&gt;file -->
<g id="edge13" class="edge">
<title>logging&#45;&gt;file</title>
<path fill="none" stroke="#000000" d="M314.0278,-58.3619C303.0045,-48.9597 286.8525,-35.183 274.8073,-24.9092"/>
<polygon fill="#000000" stroke="#000000" points="275.833,-23.484 270.8932,-21.5707 273.5617,-26.1469 275.833,-23.484"/>
</g>
<!-- message -->
<g id="node14" class="node">
<title>message</title>
<path fill="none" stroke="#000000" stroke-width="1.5" d="M374.5,-.5C374.5,-.5 428.5,-.5 428.5,-.5 432,-.5 435.5,-4 435.5,-7.5 435.5,-7.5 435.5,-14.5 435.5,-14.5 435.5,-18 432,-21.5 428.5,-21.5 428.5,-21.5 374.5,-21.5 374.5,-21.5 371,-21.5 367.5,-18 367.5,-14.5 367.5,-14.5 367.5,-7.5 367.5,-7.5 367.5,-4 371,-.5 374.5,-.5"/>
<text text-anchor="middle" x="401.5" y="-7.9" font-family="Times,serif" font-size="12.00" fill="#000000">message</text>
</g>
<!-- logging&#45;&gt;message -->
<g id="edge14" class="edge">
<title>logging&#45;&gt;message</title>
<path fill="none" stroke="#000000" d="M340.2562,-58.3619C352.5199,-48.8779 370.5391,-34.9431 383.8596,-24.6419"/>
<polygon fill="#000000" stroke="#000000" points="384.9463,-26.0138 387.8311,-21.5707 382.8052,-23.2451 384.9463,-26.0138"/>
</g>
<!-- queue -->
<g id="node15" class="node">
<title>queue</title>
<path fill="none" stroke="#000000" stroke-width="1.5" d="M306.5,-.5C306.5,-.5 346.5,-.5 346.5,-.5 350,-.5 353.5,-4 353.5,-7.5 353.5,-7.5 353.5,-14.5 353.5,-14.5 353.5,-18 350,-21.5 346.5,-21.5 346.5,-21.5 306.5,-21.5 306.5,-21.5 303,-21.5 299.5,-18 299.5,-14.5 299.5,-14.5 299.5,-7.5 299.5,-7.5 299.5,-4 303,-.5 306.5,-.5"/>
<text text-anchor="middle" x="326.5" y="-7.9" font-family="Times,serif" font-size="12.00" fill="#000000">queue</text>
</g>
<!-- logging&#45;&gt;queue -->
<g id="edge15" class="edge">
<title>logging&#45;&gt;queue</title>
<path fill="none" stroke="#000000" d="M326.5,-58.3619C326.5,-49.532 326.5,-36.844 326.5,-26.8224"/>
<polygon fill="#000000" stroke="#000000" points="328.2501,-26.5706 326.5,-21.5707 324.7501,-26.5707 328.2501,-26.5706"/>
</g>
<!-- mapping -->
<g id="node16" class="node">
<title>mapping</title>
<path fill="none" stroke="#000000" stroke-width="1.5" d="M360,-232.5C360,-232.5 415,-232.5 415,-232.5 418.5,-232.5 422,-236 422,-239.5 422,-239.5 422,-246.5 422,-246.5 422,-250 418.5,-253.5 415,-253.5 415,-253.5 360,-253.5 360,-253.5 356.5,-253.5 353,-250 353,-246.5 353,-246.5 353,-239.5 353,-239.5 353,-236 356.5,-232.5 360,-232.5"/>
<text text-anchor="middle" x="387.5" y="-239.9" font-family="Times,serif" font-size="12.00" fill="#000000">mapping</text>
</g>
<!-- mapping&#45;&gt;string -->
<g id="edge17" class="edge">
<title>mapping&#45;&gt;string</title>
<path fill="none" stroke="#000000" d="M373.5604,-232.3619C361.1332,-222.8779 342.8737,-208.9431 329.3757,-198.6419"/>
<polygon fill="#000000" stroke="#000000" points="330.3877,-197.2129 325.3512,-195.5707 328.2643,-199.9952 330.3877,-197.2129"/>
</g>
<!-- mbyte&#45;&gt;buffer -->
<g id="edge18" class="edge">
<title>mbyte&#45;&gt;buffer</title>
<path fill="none" stroke="#000000" d="M186.3783,-292.5847C156.3165,-283.2378 106.406,-267.6623 63.5,-254 62.798,-253.7765 62.088,-253.55 61.3722,-253.3214"/>
<polygon fill="#000000" stroke="#000000" points="61.8836,-251.6476 56.588,-251.7887 60.8157,-254.9808 61.8836,-251.6476"/>
</g>
<!-- mbyte&#45;&gt;charset -->
<g id="edge19" class="edge">
<title>mbyte&#45;&gt;charset</title>
<path fill="none" stroke="#000000" d="M218.2688,-290.3619C222.3003,-281.3685 228.126,-268.3727 232.6555,-258.2684"/>
<polygon fill="#000000" stroke="#000000" points="234.313,-258.8491 234.7614,-253.5707 231.1192,-257.4173 234.313,-258.8491"/>
</g>
<!-- memory&#45;&gt;logging -->
<g id="edge21" class="edge">
<title>memory&#45;&gt;logging</title>
<path fill="none" stroke="#000000" d="M359.1634,-116.3619C352.8483,-107.205 343.6716,-93.8988 336.6519,-83.7202"/>
<polygon fill="#000000" stroke="#000000" points="338.0694,-82.6932 333.7901,-79.5707 335.1882,-84.6803 338.0694,-82.6932"/>
</g>
<!-- exit -->
<g id="node19" class="node">
<title>exit</title>
<path fill="none" stroke="#000000" stroke-width="1.5" d="M447.5,-58.5C447.5,-58.5 487.5,-58.5 487.5,-58.5 491,-58.5 494.5,-62 494.5,-65.5 494.5,-65.5 494.5,-72.5 494.5,-72.5 494.5,-76 491,-79.5 487.5,-79.5 487.5,-79.5 447.5,-79.5 447.5,-79.5 444,-79.5 440.5,-76 440.5,-72.5 440.5,-72.5 440.5,-65.5 440.5,-65.5 440.5,-62 444,-58.5 447.5,-58.5"/>
<text text-anchor="middle" x="467.5" y="-65.9" font-family="Times,serif" font-size="12.00" fill="#000000">exit</text>
</g>
<!-- memory&#45;&gt;exit -->
<g id="edge20" class="edge">
<title>memory&#45;&gt;exit</title>
<path fill="none" stroke="#000000" d="M385.025,-116.3619C401.8249,-106.7144 426.6451,-92.4612 444.6663,-82.1124"/>
<polygon fill="#000000" stroke="#000000" points="445.628,-83.5782 449.0925,-79.5707 443.8851,-80.5431 445.628,-83.5782"/>
</g>
<!-- path -->
<g id="node20" class="node">
<title>path</title>
<path fill="none" stroke="#000000" stroke-width="1.5" d="M443.5,-232.5C443.5,-232.5 483.5,-232.5 483.5,-232.5 487,-232.5 490.5,-236 490.5,-239.5 490.5,-239.5 490.5,-246.5 490.5,-246.5 490.5,-250 487,-253.5 483.5,-253.5 483.5,-253.5 443.5,-253.5 443.5,-253.5 440,-253.5 436.5,-250 436.5,-246.5 436.5,-246.5 436.5,-239.5 436.5,-239.5 436.5,-236 440,-232.5 443.5,-232.5"/>
<text text-anchor="middle" x="463.5" y="-239.9" font-family="Times,serif" font-size="12.00" fill="#000000">path</text>
</g>
<!-- path&#45;&gt;string -->
<g id="edge22" class="edge">
<title>path&#45;&gt;string</title>
<path fill="none" stroke="#000000" d="M436.3254,-232.6308C410.36,-222.7229 371.2087,-207.7836 343.6919,-197.2838"/>
<polygon fill="#000000" stroke="#000000" points="343.9905,-195.5247 338.6951,-195.3771 342.7427,-198.7947 343.9905,-195.5247"/>
</g>
<!-- signal -->
<g id="node21" class="node">
<title>signal</title>
<path fill="none" stroke="#000000" stroke-width="1.5" d="M379.5,-58.5C379.5,-58.5 419.5,-58.5 419.5,-58.5 423,-58.5 426.5,-62 426.5,-65.5 426.5,-65.5 426.5,-72.5 426.5,-72.5 426.5,-76 423,-79.5 419.5,-79.5 419.5,-79.5 379.5,-79.5 379.5,-79.5 376,-79.5 372.5,-76 372.5,-72.5 372.5,-72.5 372.5,-65.5 372.5,-65.5 372.5,-62 376,-58.5 379.5,-58.5"/>
<text text-anchor="middle" x="399.5" y="-65.9" font-family="Times,serif" font-size="12.00" fill="#000000">signal</text>
</g>
<!-- signal&#45;&gt;message -->
<g id="edge24" class="edge">
<title>signal&#45;&gt;message</title>
<path fill="none" stroke="#000000" d="M399.8668,-58.3619C400.1713,-49.532 400.6088,-36.844 400.9544,-26.8224"/>
<polygon fill="#000000" stroke="#000000" points="402.7121,-26.628 401.1355,-21.5707 399.2141,-26.5073 402.7121,-26.628"/>
</g>
<!-- sha1 -->
<g id="node22" class="node">
<title>sha1</title>
<path fill="none" stroke="#000000" stroke-width="1.5" d="M456.5,-.5C456.5,-.5 496.5,-.5 496.5,-.5 500,-.5 503.5,-4 503.5,-7.5 503.5,-7.5 503.5,-14.5 503.5,-14.5 503.5,-18 500,-21.5 496.5,-21.5 496.5,-21.5 456.5,-21.5 456.5,-21.5 453,-21.5 449.5,-18 449.5,-14.5 449.5,-14.5 449.5,-7.5 449.5,-7.5 449.5,-4 453,-.5 456.5,-.5"/>
<text text-anchor="middle" x="476.5" y="-7.9" font-family="Times,serif" font-size="12.00" fill="#000000">sha1</text>
</g>
<!-- md5 -->
<g id="node23" class="node">
<title>md5</title>
<path fill="none" stroke="#000000" stroke-width="1.5" d="M524.5,-.5C524.5,-.5 564.5,-.5 564.5,-.5 568,-.5 571.5,-4 571.5,-7.5 571.5,-7.5 571.5,-14.5 571.5,-14.5 571.5,-18 568,-21.5 564.5,-21.5 564.5,-21.5 524.5,-21.5 524.5,-21.5 521,-21.5 517.5,-18 517.5,-14.5 517.5,-14.5 517.5,-7.5 517.5,-7.5 517.5,-4 521,-.5 524.5,-.5"/>
<text text-anchor="middle" x="544.5" y="-7.9" font-family="Times,serif" font-size="12.00" fill="#000000">md5</text>
</g>
</g>
</svg>
