<?xml version="1.0" encoding="UTF-8" standalone="no"?>
<!DOCTYPE svg PUBLIC "-//W3C//DTD SVG 1.1//EN"
 "http://www.w3.org/Graphics/SVG/1.1/DTD/svg11.dtd">
<!-- Generated by graphviz version 2.40.1 (0)
 -->
<!-- Title: libmutt Pages: 1 -->
<svg width="589pt" height="320pt"
 viewBox="0.00 0.00 588.50 320.00" xmlns="http://www.w3.org/2000/svg" xmlns:xlink="http://www.w3.org/1999/xlink">
<g id="graph0" class="graph" transform="scale(1 1) rotate(0) translate(4 316)">
<title>libmutt</title>
<polygon fill="#ffffff" stroke="transparent" points="-4,4 -4,-316 584.5,-316 584.5,4 -4,4"/>
<!-- base64 -->
<g id="node1" class="node">
<title>base64</title>
<path fill="none" stroke="#000000" stroke-width="1.5" d="M7,-290.5C7,-290.5 52,-290.5 52,-290.5 55.5,-290.5 59,-294 59,-297.5 59,-297.5 59,-304.5 59,-304.5 59,-308 55.5,-311.5 52,-311.5 52,-311.5 7,-311.5 7,-311.5 3.5,-311.5 0,-308 0,-304.5 0,-304.5 0,-297.5 0,-297.5 0,-294 3.5,-290.5 7,-290.5"/>
<text text-anchor="middle" x="29.5" y="-297.9" font-family="Times,serif" font-size="12.00" fill="#000000">base64</text>
</g>
<!-- buffer -->
<g id="node2" class="node">
<title>buffer</title>
<path fill="none" stroke="#000000" stroke-width="1.5" d="M9.5,-232.5C9.5,-232.5 49.5,-232.5 49.5,-232.5 53,-232.5 56.5,-236 56.5,-239.5 56.5,-239.5 56.5,-246.5 56.5,-246.5 56.5,-250 53,-253.5 49.5,-253.5 49.5,-253.5 9.5,-253.5 9.5,-253.5 6,-253.5 2.5,-250 2.5,-246.5 2.5,-246.5 2.5,-239.5 2.5,-239.5 2.5,-236 6,-232.5 9.5,-232.5"/>
<text text-anchor="middle" x="29.5" y="-239.9" font-family="Times,serif" font-size="12.00" fill="#000000">buffer</text>
</g>
<!-- base64&#45;&gt;buffer -->
<g id="edge1" class="edge">
<title>base64&#45;&gt;buffer</title>
<path fill="none" stroke="#000000" d="M29.5,-290.3619C29.5,-281.532 29.5,-268.844 29.5,-258.8224"/>
<polygon fill="#000000" stroke="#000000" points="31.2501,-258.5706 29.5,-253.5707 27.7501,-258.5707 31.2501,-258.5706"/>
</g>
<!-- string -->
<g id="node3" class="node">
<title>string</title>
<path fill="none" stroke="#000000" stroke-width="1.5" d="M215.5,-174.5C215.5,-174.5 255.5,-174.5 255.5,-174.5 259,-174.5 262.5,-178 262.5,-181.5 262.5,-181.5 262.5,-188.5 262.5,-188.5 262.5,-192 259,-195.5 255.5,-195.5 255.5,-195.5 215.5,-195.5 215.5,-195.5 212,-195.5 208.5,-192 208.5,-188.5 208.5,-188.5 208.5,-181.5 208.5,-181.5 208.5,-178 212,-174.5 215.5,-174.5"/>
<text text-anchor="middle" x="235.5" y="-181.9" font-family="Times,serif" font-size="12.00" fill="#000000">string</text>
</g>
<!-- buffer&#45;&gt;string -->
<g id="edge2" class="edge">
<title>buffer&#45;&gt;string</title>
<path fill="none" stroke="#000000" d="M56.5601,-234.1209C58.9031,-233.3898 61.2408,-232.6737 63.5,-232 111.9905,-217.5392 168.6823,-202.3832 203.3322,-193.3155"/>
<polygon fill="#000000" stroke="#000000" points="203.8856,-194.9797 208.2809,-192.0227 203.0009,-191.5934 203.8856,-194.9797"/>
</g>
<!-- memory -->
<g id="node16" class="node">
<title>memory</title>
<path fill="none" stroke="#000000" stroke-width="1.5" d="M264.5,-116.5C264.5,-116.5 316.5,-116.5 316.5,-116.5 320,-116.5 323.5,-120 323.5,-123.5 323.5,-123.5 323.5,-130.5 323.5,-130.5 323.5,-134 320,-137.5 316.5,-137.5 316.5,-137.5 264.5,-137.5 264.5,-137.5 261,-137.5 257.5,-134 257.5,-130.5 257.5,-130.5 257.5,-123.5 257.5,-123.5 257.5,-120 261,-116.5 264.5,-116.5"/>
<text text-anchor="middle" x="290.5" y="-123.9" font-family="Times,serif" font-size="12.00" fill="#000000">memory</text>
</g>
<!-- string&#45;&gt;memory -->
<g id="edge21" class="edge">
<title>string&#45;&gt;memory</title>
<path fill="none" stroke="#000000" d="M245.5878,-174.3619C254.3487,-165.1232 267.1147,-151.6609 276.799,-141.4483"/>
<polygon fill="#000000" stroke="#000000" points="278.3055,-142.403 280.4761,-137.5707 275.7658,-139.9946 278.3055,-142.403"/>
</g>
<!-- charset -->
<g id="node4" class="node">
<title>charset</title>
<path fill="none" stroke="#000000" stroke-width="1.5" d="M503.5,-232.5C503.5,-232.5 551.5,-232.5 551.5,-232.5 555,-232.5 558.5,-236 558.5,-239.5 558.5,-239.5 558.5,-246.5 558.5,-246.5 558.5,-250 555,-253.5 551.5,-253.5 551.5,-253.5 503.5,-253.5 503.5,-253.5 500,-253.5 496.5,-250 496.5,-246.5 496.5,-246.5 496.5,-239.5 496.5,-239.5 496.5,-236 500,-232.5 503.5,-232.5"/>
<text text-anchor="middle" x="527.5" y="-239.9" font-family="Times,serif" font-size="12.00" fill="#000000">charset</text>
</g>
<!-- regex -->
<g id="node5" class="node">
<title>regex</title>
<path fill="none" stroke="#000000" stroke-width="1.5" d="M533.5,-174.5C533.5,-174.5 573.5,-174.5 573.5,-174.5 577,-174.5 580.5,-178 580.5,-181.5 580.5,-181.5 580.5,-188.5 580.5,-188.5 580.5,-192 577,-195.5 573.5,-195.5 573.5,-195.5 533.5,-195.5 533.5,-195.5 530,-195.5 526.5,-192 526.5,-188.5 526.5,-188.5 526.5,-181.5 526.5,-181.5 526.5,-178 530,-174.5 533.5,-174.5"/>
<text text-anchor="middle" x="553.5" y="-181.9" font-family="Times,serif" font-size="12.00" fill="#000000">regex</text>
</g>
<!-- charset&#45;&gt;regex -->
<g id="edge3" class="edge">
<title>charset&#45;&gt;regex</title>
<path fill="none" stroke="#000000" d="M532.2688,-232.3619C536.3003,-223.3685 542.126,-210.3727 546.6555,-200.2684"/>
<polygon fill="#000000" stroke="#000000" points="548.313,-200.8491 548.7614,-195.5707 545.1192,-199.4173 548.313,-200.8491"/>
</g>
<!-- mbyte -->
<g id="node15" class="node">
<title>mbyte</title>
<path fill="none" stroke="#000000" stroke-width="1.5" d="M507.5,-290.5C507.5,-290.5 547.5,-290.5 547.5,-290.5 551,-290.5 554.5,-294 554.5,-297.5 554.5,-297.5 554.5,-304.5 554.5,-304.5 554.5,-308 551,-311.5 547.5,-311.5 547.5,-311.5 507.5,-311.5 507.5,-311.5 504,-311.5 500.5,-308 500.5,-304.5 500.5,-304.5 500.5,-297.5 500.5,-297.5 500.5,-294 504,-290.5 507.5,-290.5"/>
<text text-anchor="middle" x="527.5" y="-297.9" font-family="Times,serif" font-size="12.00" fill="#000000">mbyte</text>
</g>
<!-- regex&#45;&gt;mbyte -->
<g id="edge19" class="edge">
<title>regex&#45;&gt;mbyte</title>
<path fill="none" stroke="#000000" d="M558.5763,-195.5636C564.4756,-209.3459 572.5546,-234.0542 565.5,-254 561.11,-266.4121 551.8952,-277.9474 543.6395,-286.4839"/>
<polygon fill="#000000" stroke="#000000" points="541.9933,-285.6542 539.6891,-290.4243 544.465,-288.1322 541.9933,-285.6542"/>
</g>
<!-- date -->
<g id="node6" class="node">
<title>date</title>
<path fill="none" stroke="#000000" stroke-width="1.5" d="M77.5,-232.5C77.5,-232.5 117.5,-232.5 117.5,-232.5 121,-232.5 124.5,-236 124.5,-239.5 124.5,-239.5 124.5,-246.5 124.5,-246.5 124.5,-250 121,-253.5 117.5,-253.5 117.5,-253.5 77.5,-253.5 77.5,-253.5 74,-253.5 70.5,-250 70.5,-246.5 70.5,-246.5 70.5,-239.5 70.5,-239.5 70.5,-236 74,-232.5 77.5,-232.5"/>
<text text-anchor="middle" x="97.5" y="-239.9" font-family="Times,serif" font-size="12.00" fill="#000000">date</text>
</g>
<!-- date&#45;&gt;string -->
<g id="edge4" class="edge">
<title>date&#45;&gt;string</title>
<path fill="none" stroke="#000000" d="M122.4908,-232.4966C145.7922,-222.7033 180.5859,-208.0798 205.4045,-197.6488"/>
<polygon fill="#000000" stroke="#000000" points="206.2975,-199.1719 210.2288,-195.6212 204.9413,-195.9453 206.2975,-199.1719"/>
</g>
<!-- envlist -->
<g id="node7" class="node">
<title>envlist</title>
<path fill="none" stroke="#000000" stroke-width="1.5" d="M145.5,-232.5C145.5,-232.5 187.5,-232.5 187.5,-232.5 191,-232.5 194.5,-236 194.5,-239.5 194.5,-239.5 194.5,-246.5 194.5,-246.5 194.5,-250 191,-253.5 187.5,-253.5 187.5,-253.5 145.5,-253.5 145.5,-253.5 142,-253.5 138.5,-250 138.5,-246.5 138.5,-246.5 138.5,-239.5 138.5,-239.5 138.5,-236 142,-232.5 145.5,-232.5"/>
<text text-anchor="middle" x="166.5" y="-239.9" font-family="Times,serif" font-size="12.00" fill="#000000">envlist</text>
</g>
<!-- envlist&#45;&gt;string -->
<g id="edge5" class="edge">
<title>envlist&#45;&gt;string</title>
<path fill="none" stroke="#000000" d="M179.1557,-232.3619C190.3411,-222.9597 206.7306,-209.183 218.9529,-198.9092"/>
<polygon fill="#000000" stroke="#000000" points="220.2232,-200.1276 222.9246,-195.5707 217.9711,-197.4483 220.2232,-200.1276"/>
</g>
<!-- file -->
<g id="node8" class="node">
<title>file</title>
<path fill="none" stroke="#000000" stroke-width="1.5" d="M162.5,-.5C162.5,-.5 202.5,-.5 202.5,-.5 206,-.5 209.5,-4 209.5,-7.5 209.5,-7.5 209.5,-14.5 209.5,-14.5 209.5,-18 206,-21.5 202.5,-21.5 202.5,-21.5 162.5,-21.5 162.5,-21.5 159,-21.5 155.5,-18 155.5,-14.5 155.5,-14.5 155.5,-7.5 155.5,-7.5 155.5,-4 159,-.5 162.5,-.5"/>
<text text-anchor="middle" x="182.5" y="-7.9" font-family="Times,serif" font-size="12.00" fill="#000000">file</text>
</g>
<!-- file&#45;&gt;string -->
<g id="edge6" class="edge">
<title>file&#45;&gt;string</title>
<path fill="none" stroke="#000000" d="M185.8286,-21.9277C194.8997,-51.7086 220.0842,-134.3898 230.6918,-169.2146"/>
<polygon fill="#000000" stroke="#000000" points="229.1334,-170.1043 232.2644,-174.3774 232.4815,-169.0845 229.1334,-170.1043"/>
</g>
<!-- hash -->
<g id="node9" class="node">
<title>hash</title>
<path fill="none" stroke="#000000" stroke-width="1.5" d="M215.5,-232.5C215.5,-232.5 255.5,-232.5 255.5,-232.5 259,-232.5 262.5,-236 262.5,-239.5 262.5,-239.5 262.5,-246.5 262.5,-246.5 262.5,-250 259,-253.5 255.5,-253.5 255.5,-253.5 215.5,-253.5 215.5,-253.5 212,-253.5 208.5,-250 208.5,-246.5 208.5,-246.5 208.5,-239.5 208.5,-239.5 208.5,-236 212,-232.5 215.5,-232.5"/>
<text text-anchor="middle" x="235.5" y="-239.9" font-family="Times,serif" font-size="12.00" fill="#000000">hash</text>
</g>
<!-- hash&#45;&gt;string -->
<g id="edge7" class="edge">
<title>hash&#45;&gt;string</title>
<path fill="none" stroke="#000000" d="M235.5,-232.3619C235.5,-223.532 235.5,-210.844 235.5,-200.8224"/>
<polygon fill="#000000" stroke="#000000" points="237.2501,-200.5706 235.5,-195.5707 233.7501,-200.5707 237.2501,-200.5706"/>
</g>
<!-- list -->
<g id="node10" class="node">
<title>list</title>
<path fill="none" stroke="#000000" stroke-width="1.5" d="M283.5,-232.5C283.5,-232.5 323.5,-232.5 323.5,-232.5 327,-232.5 330.5,-236 330.5,-239.5 330.5,-239.5 330.5,-246.5 330.5,-246.5 330.5,-250 327,-253.5 323.5,-253.5 323.5,-253.5 283.5,-253.5 283.5,-253.5 280,-253.5 276.5,-250 276.5,-246.5 276.5,-246.5 276.5,-239.5 276.5,-239.5 276.5,-236 280,-232.5 283.5,-232.5"/>
<text text-anchor="middle" x="303.5" y="-239.9" font-family="Times,serif" font-size="12.00" fill="#000000">list</text>
</g>
<!-- list&#45;&gt;string -->
<g id="edge8" class="edge">
<title>list&#45;&gt;string</title>
<path fill="none" stroke="#000000" d="M291.0278,-232.3619C280.0045,-222.9597 263.8525,-209.183 251.8073,-198.9092"/>
<polygon fill="#000000" stroke="#000000" points="252.833,-197.484 247.8932,-195.5707 250.5617,-200.1469 252.833,-197.484"/>
</g>
<!-- logging -->
<g id="node11" class="node">
<title>logging</title>
<path fill="none" stroke="#000000" stroke-width="1.5" d="M226.5,-58.5C226.5,-58.5 274.5,-58.5 274.5,-58.5 278,-58.5 281.5,-62 281.5,-65.5 281.5,-65.5 281.5,-72.5 281.5,-72.5 281.5,-76 278,-79.5 274.5,-79.5 274.5,-79.5 226.5,-79.5 226.5,-79.5 223,-79.5 219.5,-76 219.5,-72.5 219.5,-72.5 219.5,-65.5 219.5,-65.5 219.5,-62 223,-58.5 226.5,-58.5"/>
<text text-anchor="middle" x="250.5" y="-65.9" font-family="Times,serif" font-size="12.00" fill="#000000">logging</text>
</g>
<!-- logging&#45;&gt;string -->
<g id="edge12" class="edge">
<title>logging&#45;&gt;string</title>
<path fill="none" stroke="#000000" d="M249.1191,-79.6792C246.4651,-100.2033 240.6409,-145.2434 237.5389,-169.2329"/>
<polygon fill="#000000" stroke="#000000" points="235.79,-169.1118 236.8843,-174.2949 239.2611,-169.5607 235.79,-169.1118"/>
</g>
<!-- logging&#45;&gt;file -->
<g id="edge9" class="edge">
<title>logging&#45;&gt;file</title>
<path fill="none" stroke="#000000" d="M238.0278,-58.3619C227.0045,-48.9597 210.8525,-35.183 198.8073,-24.9092"/>
<polygon fill="#000000" stroke="#000000" points="199.833,-23.484 194.8932,-21.5707 197.5617,-26.1469 199.833,-23.484"/>
</g>
<!-- message -->
<g id="node12" class="node">
<title>message</title>
<path fill="none" stroke="#000000" stroke-width="1.5" d="M298.5,-.5C298.5,-.5 352.5,-.5 352.5,-.5 356,-.5 359.5,-4 359.5,-7.5 359.5,-7.5 359.5,-14.5 359.5,-14.5 359.5,-18 356,-21.5 352.5,-21.5 352.5,-21.5 298.5,-21.5 298.5,-21.5 295,-21.5 291.5,-18 291.5,-14.5 291.5,-14.5 291.5,-7.5 291.5,-7.5 291.5,-4 295,-.5 298.5,-.5"/>
<text text-anchor="middle" x="325.5" y="-7.9" font-family="Times,serif" font-size="12.00" fill="#000000">message</text>
</g>
<!-- logging&#45;&gt;message -->
<g id="edge10" class="edge">
<title>logging&#45;&gt;message</title>
<path fill="none" stroke="#000000" d="M264.2562,-58.3619C276.5199,-48.8779 294.5391,-34.9431 307.8596,-24.6419"/>
<polygon fill="#000000" stroke="#000000" points="308.9463,-26.0138 311.8311,-21.5707 306.8052,-23.2451 308.9463,-26.0138"/>
</g>
<!-- queue -->
<g id="node13" class="node">
<title>queue</title>
<path fill="none" stroke="#000000" stroke-width="1.5" d="M230.5,-.5C230.5,-.5 270.5,-.5 270.5,-.5 274,-.5 277.5,-4 277.5,-7.5 277.5,-7.5 277.5,-14.5 277.5,-14.5 277.5,-18 274,-21.5 270.5,-21.5 270.5,-21.5 230.5,-21.5 230.5,-21.5 227,-21.5 223.5,-18 223.5,-14.5 223.5,-14.5 223.5,-7.5 223.5,-7.5 223.5,-4 227,-.5 230.5,-.5"/>
<text text-anchor="middle" x="250.5" y="-7.9" font-family="Times,serif" font-size="12.00" fill="#000000">queue</text>
</g>
<!-- logging&#45;&gt;queue -->
<g id="edge11" class="edge">
<title>logging&#45;&gt;queue</title>
<path fill="none" stroke="#000000" d="M250.5,-58.3619C250.5,-49.532 250.5,-36.844 250.5,-26.8224"/>
<polygon fill="#000000" stroke="#000000" points="252.2501,-26.5706 250.5,-21.5707 248.7501,-26.5707 252.2501,-26.5706"/>
</g>
<!-- mapping -->
<g id="node14" class="node">
<title>mapping</title>
<path fill="none" stroke="#000000" stroke-width="1.5" d="M352,-232.5C352,-232.5 407,-232.5 407,-232.5 410.5,-232.5 414,-236 414,-239.5 414,-239.5 414,-246.5 414,-246.5 414,-250 410.5,-253.5 407,-253.5 407,-253.5 352,-253.5 352,-253.5 348.5,-253.5 345,-250 345,-246.5 345,-246.5 345,-239.5 345,-239.5 345,-236 348.5,-232.5 352,-232.5"/>
<text text-anchor="middle" x="379.5" y="-239.9" font-family="Times,serif" font-size="12.00" fill="#000000">mapping</text>
</g>
<!-- mapping&#45;&gt;string -->
<g id="edge13" class="edge">
<title>mapping&#45;&gt;string</title>
<path fill="none" stroke="#000000" d="M353.4227,-232.4966C329.0068,-222.6625 292.4989,-207.9579 266.5809,-197.5187"/>
<polygon fill="#000000" stroke="#000000" points="267.1617,-195.8661 261.8699,-195.6212 265.854,-199.1126 267.1617,-195.8661"/>
</g>
<!-- mbyte&#45;&gt;buffer -->
<g id="edge14" class="edge">
<title>mbyte&#45;&gt;buffer</title>
<path fill="none" stroke="#000000" d="M500.257,-300.2521C428.2019,-297.8426 226.9335,-288.3096 63.5,-254 62.9535,-253.8853 62.4035,-253.765 61.8508,-253.6398"/>
<polygon fill="#000000" stroke="#000000" points="62.1037,-251.8995 56.8292,-252.3919 61.2596,-255.2962 62.1037,-251.8995"/>
</g>
<!-- mbyte&#45;&gt;charset -->
<g id="edge15" class="edge">
<title>mbyte&#45;&gt;charset</title>
<path fill="none" stroke="#000000" d="M527.5,-290.3619C527.5,-281.532 527.5,-268.844 527.5,-258.8224"/>
<polygon fill="#000000" stroke="#000000" points="529.2501,-258.5706 527.5,-253.5707 525.7501,-258.5707 529.2501,-258.5706"/>
</g>
<!-- memory&#45;&gt;logging -->
<g id="edge17" class="edge">
<title>memory&#45;&gt;logging</title>
<path fill="none" stroke="#000000" d="M283.1634,-116.3619C276.8483,-107.205 267.6716,-93.8988 260.6519,-83.7202"/>
<polygon fill="#000000" stroke="#000000" points="262.0694,-82.6932 257.7901,-79.5707 259.1882,-84.6803 262.0694,-82.6932"/>
</g>
<!-- exit -->
<g id="node17" class="node">
<title>exit</title>
<path fill="none" stroke="#000000" stroke-width="1.5" d="M371.5,-58.5C371.5,-58.5 411.5,-58.5 411.5,-58.5 415,-58.5 418.5,-62 418.5,-65.5 418.5,-65.5 418.5,-72.5 418.5,-72.5 418.5,-76 415,-79.5 411.5,-79.5 411.5,-79.5 371.5,-79.5 371.5,-79.5 368,-79.5 364.5,-76 364.5,-72.5 364.5,-72.5 364.5,-65.5 364.5,-65.5 364.5,-62 368,-58.5 371.5,-58.5"/>
<text text-anchor="middle" x="391.5" y="-65.9" font-family="Times,serif" font-size="12.00" fill="#000000">exit</text>
</g>
<!-- memory&#45;&gt;exit -->
<g id="edge16" class="edge">
<title>memory&#45;&gt;exit</title>
<path fill="none" stroke="#000000" d="M309.025,-116.3619C325.8249,-106.7144 350.6451,-92.4612 368.6663,-82.1124"/>
<polygon fill="#000000" stroke="#000000" points="369.628,-83.5782 373.0925,-79.5707 367.8851,-80.5431 369.628,-83.5782"/>
</g>
<!-- path -->
<g id="node18" class="node">
<title>path</title>
<path fill="none" stroke="#000000" stroke-width="1.5" d="M435.5,-232.5C435.5,-232.5 475.5,-232.5 475.5,-232.5 479,-232.5 482.5,-236 482.5,-239.5 482.5,-239.5 482.5,-246.5 482.5,-246.5 482.5,-250 479,-253.5 475.5,-253.5 475.5,-253.5 435.5,-253.5 435.5,-253.5 432,-253.5 428.5,-250 428.5,-246.5 428.5,-246.5 428.5,-239.5 428.5,-239.5 428.5,-236 432,-232.5 435.5,-232.5"/>
<text text-anchor="middle" x="455.5" y="-239.9" font-family="Times,serif" font-size="12.00" fill="#000000">path</text>
</g>
<!-- path&#45;&gt;string -->
<g id="edge18" class="edge">
<title>path&#45;&gt;string</title>
<path fill="none" stroke="#000000" d="M428.412,-234.3229C425.7445,-233.5177 423.0734,-232.7307 420.5,-232 367.328,-216.9028 304.9087,-201.5264 267.8647,-192.6437"/>
<polygon fill="#000000" stroke="#000000" points="267.8574,-190.8426 262.5874,-191.3811 267.0429,-194.2466 267.8574,-190.8426"/>
</g>
<!-- signal -->
<g id="node19" class="node">
<title>signal</title>
<path fill="none" stroke="#000000" stroke-width="1.5" d="M303.5,-58.5C303.5,-58.5 343.5,-58.5 343.5,-58.5 347,-58.5 350.5,-62 350.5,-65.5 350.5,-65.5 350.5,-72.5 350.5,-72.5 350.5,-76 347,-79.5 343.5,-79.5 343.5,-79.5 303.5,-79.5 303.5,-79.5 300,-79.5 296.5,-76 296.5,-72.5 296.5,-72.5 296.5,-65.5 296.5,-65.5 296.5,-62 300,-58.5 303.5,-58.5"/>
<text text-anchor="middle" x="323.5" y="-65.9" font-family="Times,serif" font-size="12.00" fill="#000000">signal</text>
</g>
<!-- signal&#45;&gt;message -->
<g id="edge20" class="edge">
<title>signal&#45;&gt;message</title>
<path fill="none" stroke="#000000" d="M323.8668,-58.3619C324.1713,-49.532 324.6088,-36.844 324.9544,-26.8224"/>
<polygon fill="#000000" stroke="#000000" points="326.7121,-26.628 325.1355,-21.5707 323.2141,-26.5073 326.7121,-26.628"/>
</g>
<!-- md5 -->
<g id="node20" class="node">
<title>md5</title>
<path fill="none" stroke="#000000" stroke-width="1.5" d="M380.5,-.5C380.5,-.5 420.5,-.5 420.5,-.5 424,-.5 427.5,-4 427.5,-7.5 427.5,-7.5 427.5,-14.5 427.5,-14.5 427.5,-18 424,-21.5 420.5,-21.5 420.5,-21.5 380.5,-21.5 380.5,-21.5 377,-21.5 373.5,-18 373.5,-14.5 373.5,-14.5 373.5,-7.5 373.5,-7.5 373.5,-4 377,-.5 380.5,-.5"/>
<text text-anchor="middle" x="400.5" y="-7.9" font-family="Times,serif" font-size="12.00" fill="#000000">md5</text>
</g>
</g>
</svg>
