<?xml version="1.0" encoding="UTF-8" standalone="no"?>
<!DOCTYPE svg PUBLIC "-//W3C//DTD SVG 1.1//EN"
 "http://www.w3.org/Graphics/SVG/1.1/DTD/svg11.dtd">
<!-- Generated by graphviz version 2.40.1 (20161225.0304)
 -->
<!-- Title: m2 Pages: 1 -->
<svg width="599pt" height="320pt"
 viewBox="0.00 0.00 598.50 320.00" xmlns="http://www.w3.org/2000/svg" xmlns:xlink="http://www.w3.org/1999/xlink">
<g id="graph0" class="graph" transform="scale(1 1) rotate(0) translate(4 316)">
<title>m2</title>
<polygon fill="#ffffff" stroke="transparent" points="-4,4 -4,-316 594.5,-316 594.5,4 -4,4"/>
<!-- buffer -->
<g id="node1" class="node">
<title>buffer</title>
<path fill="none" stroke="#000000" stroke-width="1.5" d="M7,-232.5C7,-232.5 47,-232.5 47,-232.5 50.5,-232.5 54,-236 54,-239.5 54,-239.5 54,-246.5 54,-246.5 54,-250 50.5,-253.5 47,-253.5 47,-253.5 7,-253.5 7,-253.5 3.5,-253.5 0,-250 0,-246.5 0,-246.5 0,-239.5 0,-239.5 0,-236 3.5,-232.5 7,-232.5"/>
<text text-anchor="middle" x="27" y="-239.9" font-family="Times,serif" font-size="12.00" fill="#000000">buffer</text>
</g>
<!-- string -->
<g id="node2" class="node">
<title>string</title>
<path fill="none" stroke="#000000" stroke-width="1.5" d="M143,-174.5C143,-174.5 183,-174.5 183,-174.5 186.5,-174.5 190,-178 190,-181.5 190,-181.5 190,-188.5 190,-188.5 190,-192 186.5,-195.5 183,-195.5 183,-195.5 143,-195.5 143,-195.5 139.5,-195.5 136,-192 136,-188.5 136,-188.5 136,-181.5 136,-181.5 136,-178 139.5,-174.5 143,-174.5"/>
<text text-anchor="middle" x="163" y="-181.9" font-family="Times,serif" font-size="12.00" fill="#000000">string</text>
</g>
<!-- buffer&#45;&gt;string -->
<g id="edge1" class="edge">
<title>buffer&#45;&gt;string</title>
<path fill="none" stroke="#000000" d="M51.6286,-232.4966C74.5923,-222.7033 108.8818,-208.0798 133.3406,-197.6488"/>
<polygon fill="#000000" stroke="#000000" points="134.1824,-199.1924 138.0951,-195.6212 132.8093,-195.973 134.1824,-199.1924"/>
</g>
<!-- memory -->
<g id="node16" class="node">
<title>memory</title>
<path fill="none" stroke="#000000" stroke-width="1.5" d="M192,-116.5C192,-116.5 244,-116.5 244,-116.5 247.5,-116.5 251,-120 251,-123.5 251,-123.5 251,-130.5 251,-130.5 251,-134 247.5,-137.5 244,-137.5 244,-137.5 192,-137.5 192,-137.5 188.5,-137.5 185,-134 185,-130.5 185,-130.5 185,-123.5 185,-123.5 185,-120 188.5,-116.5 192,-116.5"/>
<text text-anchor="middle" x="218" y="-123.9" font-family="Times,serif" font-size="12.00" fill="#000000">memory</text>
</g>
<!-- string&#45;&gt;memory -->
<g id="edge23" class="edge">
<title>string&#45;&gt;memory</title>
<path fill="none" stroke="#000000" d="M173.0878,-174.3619C181.8487,-165.1232 194.6147,-151.6609 204.299,-141.4483"/>
<polygon fill="#000000" stroke="#000000" points="205.8055,-142.403 207.9761,-137.5707 203.2658,-139.9946 205.8055,-142.403"/>
</g>
<!-- charset -->
<g id="node3" class="node">
<title>charset</title>
<path fill="none" stroke="#000000" stroke-width="1.5" d="M393,-232.5C393,-232.5 441,-232.5 441,-232.5 444.5,-232.5 448,-236 448,-239.5 448,-239.5 448,-246.5 448,-246.5 448,-250 444.5,-253.5 441,-253.5 441,-253.5 393,-253.5 393,-253.5 389.5,-253.5 386,-250 386,-246.5 386,-246.5 386,-239.5 386,-239.5 386,-236 389.5,-232.5 393,-232.5"/>
<text text-anchor="middle" x="417" y="-239.9" font-family="Times,serif" font-size="12.00" fill="#000000">charset</text>
</g>
<!-- regex -->
<g id="node4" class="node">
<title>regex</title>
<path fill="none" stroke="#000000" stroke-width="1.5" d="M370,-174.5C370,-174.5 410,-174.5 410,-174.5 413.5,-174.5 417,-178 417,-181.5 417,-181.5 417,-188.5 417,-188.5 417,-192 413.5,-195.5 410,-195.5 410,-195.5 370,-195.5 370,-195.5 366.5,-195.5 363,-192 363,-188.5 363,-188.5 363,-181.5 363,-181.5 363,-178 366.5,-174.5 370,-174.5"/>
<text text-anchor="middle" x="390" y="-181.9" font-family="Times,serif" font-size="12.00" fill="#000000">regex</text>
</g>
<!-- charset&#45;&gt;regex -->
<g id="edge2" class="edge">
<title>charset&#45;&gt;regex</title>
<path fill="none" stroke="#000000" d="M412.0478,-232.3619C407.8612,-223.3685 401.8114,-210.3727 397.1077,-200.2684"/>
<polygon fill="#000000" stroke="#000000" points="398.6175,-199.365 394.9208,-195.5707 395.4445,-200.8421 398.6175,-199.365"/>
</g>
<!-- mbyte -->
<g id="node14" class="node">
<title>mbyte</title>
<path fill="none" stroke="#000000" stroke-width="1.5" d="M329,-290.5C329,-290.5 369,-290.5 369,-290.5 372.5,-290.5 376,-294 376,-297.5 376,-297.5 376,-304.5 376,-304.5 376,-308 372.5,-311.5 369,-311.5 369,-311.5 329,-311.5 329,-311.5 325.5,-311.5 322,-308 322,-304.5 322,-304.5 322,-297.5 322,-297.5 322,-294 325.5,-290.5 329,-290.5"/>
<text text-anchor="middle" x="349" y="-297.9" font-family="Times,serif" font-size="12.00" fill="#000000">mbyte</text>
</g>
<!-- regex&#45;&gt;mbyte -->
<g id="edge18" class="edge">
<title>regex&#45;&gt;mbyte</title>
<path fill="none" stroke="#000000" d="M386.2255,-195.6792C378.9408,-216.2895 362.918,-261.6223 354.4664,-285.5341"/>
<polygon fill="#000000" stroke="#000000" points="352.8,-284.9975 352.7837,-290.2949 356.1,-286.1639 352.8,-284.9975"/>
</g>
<!-- date -->
<g id="node5" class="node">
<title>date</title>
<path fill="none" stroke="#000000" stroke-width="1.5" d="M75,-232.5C75,-232.5 115,-232.5 115,-232.5 118.5,-232.5 122,-236 122,-239.5 122,-239.5 122,-246.5 122,-246.5 122,-250 118.5,-253.5 115,-253.5 115,-253.5 75,-253.5 75,-253.5 71.5,-253.5 68,-250 68,-246.5 68,-246.5 68,-239.5 68,-239.5 68,-236 71.5,-232.5 75,-232.5"/>
<text text-anchor="middle" x="95" y="-239.9" font-family="Times,serif" font-size="12.00" fill="#000000">date</text>
</g>
<!-- date&#45;&gt;string -->
<g id="edge3" class="edge">
<title>date&#45;&gt;string</title>
<path fill="none" stroke="#000000" d="M107.4722,-232.3619C118.4955,-222.9597 134.6475,-209.183 146.6927,-198.9092"/>
<polygon fill="#000000" stroke="#000000" points="147.9383,-200.1469 150.6068,-195.5707 145.667,-197.484 147.9383,-200.1469"/>
</g>
<!-- file -->
<g id="node6" class="node">
<title>file</title>
<path fill="none" stroke="#000000" stroke-width="1.5" d="M127,-.5C127,-.5 167,-.5 167,-.5 170.5,-.5 174,-4 174,-7.5 174,-7.5 174,-14.5 174,-14.5 174,-18 170.5,-21.5 167,-21.5 167,-21.5 127,-21.5 127,-21.5 123.5,-21.5 120,-18 120,-14.5 120,-14.5 120,-7.5 120,-7.5 120,-4 123.5,-.5 127,-.5"/>
<text text-anchor="middle" x="147" y="-7.9" font-family="Times,serif" font-size="12.00" fill="#000000">file</text>
</g>
<!-- file&#45;&gt;string -->
<g id="edge4" class="edge">
<title>file&#45;&gt;string</title>
<path fill="none" stroke="#000000" d="M144.0467,-21.7243C141.6034,-31.1844 138.3267,-45.3892 137,-58 132.7132,-98.7473 147.6719,-145.7666 156.6718,-169.5309"/>
<polygon fill="#000000" stroke="#000000" points="155.0566,-170.2064 158.4927,-174.2383 158.3209,-168.9437 155.0566,-170.2064"/>
</g>
<!-- hash -->
<g id="node7" class="node">
<title>hash</title>
<path fill="none" stroke="#000000" stroke-width="1.5" d="M143,-232.5C143,-232.5 183,-232.5 183,-232.5 186.5,-232.5 190,-236 190,-239.5 190,-239.5 190,-246.5 190,-246.5 190,-250 186.5,-253.5 183,-253.5 183,-253.5 143,-253.5 143,-253.5 139.5,-253.5 136,-250 136,-246.5 136,-246.5 136,-239.5 136,-239.5 136,-236 139.5,-232.5 143,-232.5"/>
<text text-anchor="middle" x="163" y="-239.9" font-family="Times,serif" font-size="12.00" fill="#000000">hash</text>
</g>
<!-- hash&#45;&gt;string -->
<g id="edge5" class="edge">
<title>hash&#45;&gt;string</title>
<path fill="none" stroke="#000000" d="M163,-232.3619C163,-223.532 163,-210.844 163,-200.8224"/>
<polygon fill="#000000" stroke="#000000" points="164.7501,-200.5706 163,-195.5707 161.2501,-200.5707 164.7501,-200.5706"/>
</g>
<!-- idna -->
<g id="node8" class="node">
<title>idna</title>
<path fill="none" stroke="#000000" stroke-width="1.5" d="M397,-290.5C397,-290.5 437,-290.5 437,-290.5 440.5,-290.5 444,-294 444,-297.5 444,-297.5 444,-304.5 444,-304.5 444,-308 440.5,-311.5 437,-311.5 437,-311.5 397,-311.5 397,-311.5 393.5,-311.5 390,-308 390,-304.5 390,-304.5 390,-297.5 390,-297.5 390,-294 393.5,-290.5 397,-290.5"/>
<text text-anchor="middle" x="417" y="-297.9" font-family="Times,serif" font-size="12.00" fill="#000000">idna</text>
</g>
<!-- idna&#45;&gt;charset -->
<g id="edge6" class="edge">
<title>idna&#45;&gt;charset</title>
<path fill="none" stroke="#000000" d="M417,-290.3619C417,-281.532 417,-268.844 417,-258.8224"/>
<polygon fill="#000000" stroke="#000000" points="418.7501,-258.5706 417,-253.5707 415.2501,-258.5707 418.7501,-258.5706"/>
</g>
<!-- list -->
<g id="node9" class="node">
<title>list</title>
<path fill="none" stroke="#000000" stroke-width="1.5" d="M211,-232.5C211,-232.5 251,-232.5 251,-232.5 254.5,-232.5 258,-236 258,-239.5 258,-239.5 258,-246.5 258,-246.5 258,-250 254.5,-253.5 251,-253.5 251,-253.5 211,-253.5 211,-253.5 207.5,-253.5 204,-250 204,-246.5 204,-246.5 204,-239.5 204,-239.5 204,-236 207.5,-232.5 211,-232.5"/>
<text text-anchor="middle" x="231" y="-239.9" font-family="Times,serif" font-size="12.00" fill="#000000">list</text>
</g>
<!-- list&#45;&gt;string -->
<g id="edge7" class="edge">
<title>list&#45;&gt;string</title>
<path fill="none" stroke="#000000" d="M218.5278,-232.3619C207.5045,-222.9597 191.3525,-209.183 179.3073,-198.9092"/>
<polygon fill="#000000" stroke="#000000" points="180.333,-197.484 175.3932,-195.5707 178.0617,-200.1469 180.333,-197.484"/>
</g>
<!-- logging -->
<g id="node10" class="node">
<title>logging</title>
<path fill="none" stroke="#000000" stroke-width="1.5" d="M151,-58.5C151,-58.5 199,-58.5 199,-58.5 202.5,-58.5 206,-62 206,-65.5 206,-65.5 206,-72.5 206,-72.5 206,-76 202.5,-79.5 199,-79.5 199,-79.5 151,-79.5 151,-79.5 147.5,-79.5 144,-76 144,-72.5 144,-72.5 144,-65.5 144,-65.5 144,-62 147.5,-58.5 151,-58.5"/>
<text text-anchor="middle" x="175" y="-65.9" font-family="Times,serif" font-size="12.00" fill="#000000">logging</text>
</g>
<!-- logging&#45;&gt;string -->
<g id="edge11" class="edge">
<title>logging&#45;&gt;string</title>
<path fill="none" stroke="#000000" d="M173.8953,-79.6792C171.7721,-100.2033 167.1127,-145.2434 164.6311,-169.2329"/>
<polygon fill="#000000" stroke="#000000" points="162.8813,-169.1414 164.1074,-174.2949 166.3627,-169.5016 162.8813,-169.1414"/>
</g>
<!-- logging&#45;&gt;file -->
<g id="edge8" class="edge">
<title>logging&#45;&gt;file</title>
<path fill="none" stroke="#000000" d="M169.8644,-58.3619C165.5227,-49.3685 159.2489,-36.3727 154.371,-26.2684"/>
<polygon fill="#000000" stroke="#000000" points="155.8528,-25.3126 152.1031,-21.5707 152.7009,-26.8343 155.8528,-25.3126"/>
</g>
<!-- message -->
<g id="node11" class="node">
<title>message</title>
<path fill="none" stroke="#000000" stroke-width="1.5" d="M207,-.5C207,-.5 261,-.5 261,-.5 264.5,-.5 268,-4 268,-7.5 268,-7.5 268,-14.5 268,-14.5 268,-18 264.5,-21.5 261,-21.5 261,-21.5 207,-21.5 207,-21.5 203.5,-21.5 200,-18 200,-14.5 200,-14.5 200,-7.5 200,-7.5 200,-4 203.5,-.5 207,-.5"/>
<text text-anchor="middle" x="234" y="-7.9" font-family="Times,serif" font-size="12.00" fill="#000000">message</text>
</g>
<!-- logging&#45;&gt;message -->
<g id="edge9" class="edge">
<title>logging&#45;&gt;message</title>
<path fill="none" stroke="#000000" d="M185.8215,-58.3619C195.3027,-49.0415 209.1567,-35.4223 219.5776,-25.178"/>
<polygon fill="#000000" stroke="#000000" points="220.9083,-26.3238 223.2471,-21.5707 218.4546,-23.8279 220.9083,-26.3238"/>
</g>
<!-- queue -->
<g id="node12" class="node">
<title>queue</title>
<path fill="none" stroke="#000000" stroke-width="1.5" d="M298,-.5C298,-.5 338,-.5 338,-.5 341.5,-.5 345,-4 345,-7.5 345,-7.5 345,-14.5 345,-14.5 345,-18 341.5,-21.5 338,-21.5 338,-21.5 298,-21.5 298,-21.5 294.5,-21.5 291,-18 291,-14.5 291,-14.5 291,-7.5 291,-7.5 291,-4 294.5,-.5 298,-.5"/>
<text text-anchor="middle" x="318" y="-7.9" font-family="Times,serif" font-size="12.00" fill="#000000">queue</text>
</g>
<!-- logging&#45;&gt;queue -->
<g id="edge10" class="edge">
<title>logging&#45;&gt;queue</title>
<path fill="none" stroke="#000000" d="M200.8962,-58.4966C225.1425,-48.6625 261.3969,-33.9579 287.135,-23.5187"/>
<polygon fill="#000000" stroke="#000000" points="287.8376,-25.1222 291.8132,-21.6212 286.522,-21.8789 287.8376,-25.1222"/>
</g>
<!-- mapping -->
<g id="node13" class="node">
<title>mapping</title>
<path fill="none" stroke="#000000" stroke-width="1.5" d="M279.5,-232.5C279.5,-232.5 334.5,-232.5 334.5,-232.5 338,-232.5 341.5,-236 341.5,-239.5 341.5,-239.5 341.5,-246.5 341.5,-246.5 341.5,-250 338,-253.5 334.5,-253.5 334.5,-253.5 279.5,-253.5 279.5,-253.5 276,-253.5 272.5,-250 272.5,-246.5 272.5,-246.5 272.5,-239.5 272.5,-239.5 272.5,-236 276,-232.5 279.5,-232.5"/>
<text text-anchor="middle" x="307" y="-239.9" font-family="Times,serif" font-size="12.00" fill="#000000">mapping</text>
</g>
<!-- mapping&#45;&gt;string -->
<g id="edge12" class="edge">
<title>mapping&#45;&gt;string</title>
<path fill="none" stroke="#000000" d="M280.9227,-232.4966C256.5068,-222.6625 219.9989,-207.9579 194.0809,-197.5187"/>
<polygon fill="#000000" stroke="#000000" points="194.6617,-195.8661 189.3699,-195.6212 193.354,-199.1126 194.6617,-195.8661"/>
</g>
<!-- mbyte&#45;&gt;buffer -->
<g id="edge13" class="edge">
<title>mbyte&#45;&gt;buffer</title>
<path fill="none" stroke="#000000" d="M321.7269,-297.9443C270.2716,-291.8722 155.5433,-276.8694 61,-254 60.4573,-253.8687 59.9107,-253.7331 59.3612,-253.5935"/>
<polygon fill="#000000" stroke="#000000" points="59.6456,-251.8578 54.3624,-252.2452 58.7341,-255.237 59.6456,-251.8578"/>
</g>
<!-- mbyte&#45;&gt;charset -->
<g id="edge14" class="edge">
<title>mbyte&#45;&gt;charset</title>
<path fill="none" stroke="#000000" d="M361.4722,-290.3619C372.4955,-280.9597 388.6475,-267.183 400.6927,-256.9092"/>
<polygon fill="#000000" stroke="#000000" points="401.9383,-258.1469 404.6068,-253.5707 399.667,-255.484 401.9383,-258.1469"/>
</g>
<!-- md5 -->
<g id="node15" class="node">
<title>md5</title>
<path fill="none" stroke="#000000" stroke-width="1.5" d="M366,-.5C366,-.5 406,-.5 406,-.5 409.5,-.5 413,-4 413,-7.5 413,-7.5 413,-14.5 413,-14.5 413,-18 409.5,-21.5 406,-21.5 406,-21.5 366,-21.5 366,-21.5 362.5,-21.5 359,-18 359,-14.5 359,-14.5 359,-7.5 359,-7.5 359,-4 362.5,-.5 366,-.5"/>
<text text-anchor="middle" x="386" y="-7.9" font-family="Times,serif" font-size="12.00" fill="#000000">md5</text>
</g>
<!-- memory&#45;&gt;logging -->
<g id="edge16" class="edge">
<title>memory&#45;&gt;logging</title>
<path fill="none" stroke="#000000" d="M210.1131,-116.3619C203.3244,-107.205 193.4595,-93.8988 185.9133,-83.7202"/>
<polygon fill="#000000" stroke="#000000" points="187.2205,-82.545 182.8369,-79.5707 184.4089,-84.6295 187.2205,-82.545"/>
</g>
<!-- exit -->
<g id="node17" class="node">
<title>exit</title>
<path fill="none" stroke="#000000" stroke-width="1.5" d="M389,-58.5C389,-58.5 429,-58.5 429,-58.5 432.5,-58.5 436,-62 436,-65.5 436,-65.5 436,-72.5 436,-72.5 436,-76 432.5,-79.5 429,-79.5 429,-79.5 389,-79.5 389,-79.5 385.5,-79.5 382,-76 382,-72.5 382,-72.5 382,-65.5 382,-65.5 382,-62 385.5,-58.5 389,-58.5"/>
<text text-anchor="middle" x="409" y="-65.9" font-family="Times,serif" font-size="12.00" fill="#000000">exit</text>
</g>
<!-- memory&#45;&gt;exit -->
<g id="edge15" class="edge">
<title>memory&#45;&gt;exit</title>
<path fill="none" stroke="#000000" d="M251.1438,-117.3084C282.9632,-107.9496 332.3503,-93.2813 375,-80 375.7034,-79.781 376.4147,-79.5586 377.1317,-79.3336"/>
<polygon fill="#000000" stroke="#000000" points="377.6815,-80.9952 381.9218,-77.82 376.6269,-77.6579 377.6815,-80.9952"/>
</g>
<!-- parameter -->
<g id="node18" class="node">
<title>parameter</title>
<path fill="none" stroke="#000000" stroke-width="1.5" d="M295,-58.5C295,-58.5 361,-58.5 361,-58.5 364.5,-58.5 368,-62 368,-65.5 368,-65.5 368,-72.5 368,-72.5 368,-76 364.5,-79.5 361,-79.5 361,-79.5 295,-79.5 295,-79.5 291.5,-79.5 288,-76 288,-72.5 288,-72.5 288,-65.5 288,-65.5 288,-62 291.5,-58.5 295,-58.5"/>
<text text-anchor="middle" x="328" y="-65.9" font-family="Times,serif" font-size="12.00" fill="#000000">parameter</text>
</g>
<!-- parameter&#45;&gt;queue -->
<g id="edge17" class="edge">
<title>parameter&#45;&gt;queue</title>
<path fill="none" stroke="#000000" d="M326.1658,-58.3619C324.6294,-49.4502 322.4153,-36.6087 320.6801,-26.5447"/>
<polygon fill="#000000" stroke="#000000" points="322.3967,-26.2006 319.8225,-21.5707 318.9476,-26.7953 322.3967,-26.2006"/>
</g>
<!-- rfc2047 -->
<g id="node19" class="node">
<title>rfc2047</title>
<path fill="none" stroke="#000000" stroke-width="1.5" d="M465,-290.5C465,-290.5 515,-290.5 515,-290.5 518.5,-290.5 522,-294 522,-297.5 522,-297.5 522,-304.5 522,-304.5 522,-308 518.5,-311.5 515,-311.5 515,-311.5 465,-311.5 465,-311.5 461.5,-311.5 458,-308 458,-304.5 458,-304.5 458,-297.5 458,-297.5 458,-294 461.5,-290.5 465,-290.5"/>
<text text-anchor="middle" x="490" y="-297.9" font-family="Times,serif" font-size="12.00" fill="#000000">rfc2047</text>
</g>
<!-- rfc2047&#45;&gt;charset -->
<g id="edge20" class="edge">
<title>rfc2047&#45;&gt;charset</title>
<path fill="none" stroke="#000000" d="M476.6107,-290.3619C464.7769,-280.9597 447.4372,-267.183 434.5064,-256.9092"/>
<polygon fill="#000000" stroke="#000000" points="435.3079,-255.3109 430.3044,-253.5707 433.1306,-258.0512 435.3079,-255.3109"/>
</g>
<!-- base64 -->
<g id="node20" class="node">
<title>base64</title>
<path fill="none" stroke="#000000" stroke-width="1.5" d="M538.5,-232.5C538.5,-232.5 583.5,-232.5 583.5,-232.5 587,-232.5 590.5,-236 590.5,-239.5 590.5,-239.5 590.5,-246.5 590.5,-246.5 590.5,-250 587,-253.5 583.5,-253.5 583.5,-253.5 538.5,-253.5 538.5,-253.5 535,-253.5 531.5,-250 531.5,-246.5 531.5,-246.5 531.5,-239.5 531.5,-239.5 531.5,-236 535,-232.5 538.5,-232.5"/>
<text text-anchor="middle" x="561" y="-239.9" font-family="Times,serif" font-size="12.00" fill="#000000">base64</text>
</g>
<!-- rfc2047&#45;&gt;base64 -->
<g id="edge19" class="edge">
<title>rfc2047&#45;&gt;base64</title>
<path fill="none" stroke="#000000" d="M503.0225,-290.3619C514.5321,-280.9597 531.3967,-267.183 543.9733,-256.9092"/>
<polygon fill="#000000" stroke="#000000" points="545.295,-258.0892 548.0601,-253.5707 543.0807,-255.3786 545.295,-258.0892"/>
</g>
<!-- mime -->
<g id="node21" class="node">
<title>mime</title>
<path fill="none" stroke="#000000" stroke-width="1.5" d="M470,-232.5C470,-232.5 510,-232.5 510,-232.5 513.5,-232.5 517,-236 517,-239.5 517,-239.5 517,-246.5 517,-246.5 517,-250 513.5,-253.5 510,-253.5 510,-253.5 470,-253.5 470,-253.5 466.5,-253.5 463,-250 463,-246.5 463,-246.5 463,-239.5 463,-239.5 463,-236 466.5,-232.5 470,-232.5"/>
<text text-anchor="middle" x="490" y="-239.9" font-family="Times,serif" font-size="12.00" fill="#000000">mime</text>
</g>
<!-- rfc2047&#45;&gt;mime -->
<g id="edge21" class="edge">
<title>rfc2047&#45;&gt;mime</title>
<path fill="none" stroke="#000000" d="M490,-290.3619C490,-281.532 490,-268.844 490,-258.8224"/>
<polygon fill="#000000" stroke="#000000" points="491.7501,-258.5706 490,-253.5707 488.2501,-258.5707 491.7501,-258.5706"/>
</g>
<!-- sha1 -->
<g id="node22" class="node">
<title>sha1</title>
<path fill="none" stroke="#000000" stroke-width="1.5" d="M434,-.5C434,-.5 474,-.5 474,-.5 477.5,-.5 481,-4 481,-7.5 481,-7.5 481,-14.5 481,-14.5 481,-18 477.5,-21.5 474,-21.5 474,-21.5 434,-21.5 434,-21.5 430.5,-21.5 427,-18 427,-14.5 427,-14.5 427,-7.5 427,-7.5 427,-4 430.5,-.5 434,-.5"/>
<text text-anchor="middle" x="454" y="-7.9" font-family="Times,serif" font-size="12.00" fill="#000000">sha1</text>
</g>
<!-- signal -->
<g id="node23" class="node">
<title>signal</title>
<path fill="none" stroke="#000000" stroke-width="1.5" d="M227,-58.5C227,-58.5 267,-58.5 267,-58.5 270.5,-58.5 274,-62 274,-65.5 274,-65.5 274,-72.5 274,-72.5 274,-76 270.5,-79.5 267,-79.5 267,-79.5 227,-79.5 227,-79.5 223.5,-79.5 220,-76 220,-72.5 220,-72.5 220,-65.5 220,-65.5 220,-62 223.5,-58.5 227,-58.5"/>
<text text-anchor="middle" x="247" y="-65.9" font-family="Times,serif" font-size="12.00" fill="#000000">signal</text>
</g>
<!-- signal&#45;&gt;message -->
<g id="edge22" class="edge">
<title>signal&#45;&gt;message</title>
<path fill="none" stroke="#000000" d="M244.6156,-58.3619C242.6182,-49.4502 239.7399,-36.6087 237.4842,-26.5447"/>
<polygon fill="#000000" stroke="#000000" points="239.1706,-26.0668 236.3693,-21.5707 235.7553,-26.8324 239.1706,-26.0668"/>
</g>
</g>
</svg>
