<?xml version="1.0" encoding="UTF-8" standalone="no"?>
<!DOCTYPE svg PUBLIC "-//W3C//DTD SVG 1.1//EN"
 "http://www.w3.org/Graphics/SVG/1.1/DTD/svg11.dtd">
<!-- Generated by graphviz version 2.40.1 (20161225.0304)
 -->
<!-- Title: m2 Pages: 1 -->
<svg width="524pt" height="320pt"
 viewBox="0.00 0.00 524.00 320.00" xmlns="http://www.w3.org/2000/svg" xmlns:xlink="http://www.w3.org/1999/xlink">
<g id="graph0" class="graph" transform="scale(1 1) rotate(0) translate(4 316)">
<title>m2</title>
<polygon fill="#ffffff" stroke="transparent" points="-4,4 -4,-316 520,-316 520,4 -4,4"/>
<!-- buffer -->
<g id="node1" class="node">
<title>buffer</title>
<path fill="none" stroke="#000000" stroke-width="1.5" d="M211,-232.5C211,-232.5 251,-232.5 251,-232.5 254.5,-232.5 258,-236 258,-239.5 258,-239.5 258,-246.5 258,-246.5 258,-250 254.5,-253.5 251,-253.5 251,-253.5 211,-253.5 211,-253.5 207.5,-253.5 204,-250 204,-246.5 204,-246.5 204,-239.5 204,-239.5 204,-236 207.5,-232.5 211,-232.5"/>
<text text-anchor="middle" x="231" y="-239.9" font-family="Times,serif" font-size="12.00" fill="#000000">buffer</text>
</g>
<!-- string -->
<g id="node2" class="node">
<title>string</title>
<path fill="none" stroke="#000000" stroke-width="1.5" d="M177,-174.5C177,-174.5 217,-174.5 217,-174.5 220.5,-174.5 224,-178 224,-181.5 224,-181.5 224,-188.5 224,-188.5 224,-192 220.5,-195.5 217,-195.5 217,-195.5 177,-195.5 177,-195.5 173.5,-195.5 170,-192 170,-188.5 170,-188.5 170,-181.5 170,-181.5 170,-178 173.5,-174.5 177,-174.5"/>
<text text-anchor="middle" x="197" y="-181.9" font-family="Times,serif" font-size="12.00" fill="#000000">string</text>
</g>
<!-- buffer&#45;&gt;string -->
<g id="edge1" class="edge">
<title>buffer&#45;&gt;string</title>
<path fill="none" stroke="#000000" d="M224.7639,-232.3619C219.4439,-223.2867 211.7349,-210.1361 205.7893,-199.9936"/>
<polygon fill="#000000" stroke="#000000" points="207.235,-198.9991 203.1966,-195.5707 204.2155,-200.7692 207.235,-198.9991"/>
</g>
<!-- memory -->
<g id="node16" class="node">
<title>memory</title>
<path fill="none" stroke="#000000" stroke-width="1.5" d="M226,-116.5C226,-116.5 278,-116.5 278,-116.5 281.5,-116.5 285,-120 285,-123.5 285,-123.5 285,-130.5 285,-130.5 285,-134 281.5,-137.5 278,-137.5 278,-137.5 226,-137.5 226,-137.5 222.5,-137.5 219,-134 219,-130.5 219,-130.5 219,-123.5 219,-123.5 219,-120 222.5,-116.5 226,-116.5"/>
<text text-anchor="middle" x="252" y="-123.9" font-family="Times,serif" font-size="12.00" fill="#000000">memory</text>
</g>
<!-- string&#45;&gt;memory -->
<g id="edge20" class="edge">
<title>string&#45;&gt;memory</title>
<path fill="none" stroke="#000000" d="M207.0878,-174.3619C215.8487,-165.1232 228.6147,-151.6609 238.299,-141.4483"/>
<polygon fill="#000000" stroke="#000000" points="239.8055,-142.403 241.9761,-137.5707 237.2658,-139.9946 239.8055,-142.403"/>
</g>
<!-- charset -->
<g id="node3" class="node">
<title>charset</title>
<path fill="none" stroke="#000000" stroke-width="1.5" d="M461,-232.5C461,-232.5 509,-232.5 509,-232.5 512.5,-232.5 516,-236 516,-239.5 516,-239.5 516,-246.5 516,-246.5 516,-250 512.5,-253.5 509,-253.5 509,-253.5 461,-253.5 461,-253.5 457.5,-253.5 454,-250 454,-246.5 454,-246.5 454,-239.5 454,-239.5 454,-236 457.5,-232.5 461,-232.5"/>
<text text-anchor="middle" x="485" y="-239.9" font-family="Times,serif" font-size="12.00" fill="#000000">charset</text>
</g>
<!-- regex -->
<g id="node4" class="node">
<title>regex</title>
<path fill="none" stroke="#000000" stroke-width="1.5" d="M438,-174.5C438,-174.5 478,-174.5 478,-174.5 481.5,-174.5 485,-178 485,-181.5 485,-181.5 485,-188.5 485,-188.5 485,-192 481.5,-195.5 478,-195.5 478,-195.5 438,-195.5 438,-195.5 434.5,-195.5 431,-192 431,-188.5 431,-188.5 431,-181.5 431,-181.5 431,-178 434.5,-174.5 438,-174.5"/>
<text text-anchor="middle" x="458" y="-181.9" font-family="Times,serif" font-size="12.00" fill="#000000">regex</text>
</g>
<!-- charset&#45;&gt;regex -->
<g id="edge2" class="edge">
<title>charset&#45;&gt;regex</title>
<path fill="none" stroke="#000000" d="M480.0478,-232.3619C475.8612,-223.3685 469.8114,-210.3727 465.1077,-200.2684"/>
<polygon fill="#000000" stroke="#000000" points="466.6175,-199.365 462.9208,-195.5707 463.4445,-200.8421 466.6175,-199.365"/>
</g>
<!-- mbyte -->
<g id="node14" class="node">
<title>mbyte</title>
<path fill="none" stroke="#000000" stroke-width="1.5" d="M412,-290.5C412,-290.5 452,-290.5 452,-290.5 455.5,-290.5 459,-294 459,-297.5 459,-297.5 459,-304.5 459,-304.5 459,-308 455.5,-311.5 452,-311.5 452,-311.5 412,-311.5 412,-311.5 408.5,-311.5 405,-308 405,-304.5 405,-304.5 405,-297.5 405,-297.5 405,-294 408.5,-290.5 412,-290.5"/>
<text text-anchor="middle" x="432" y="-297.9" font-family="Times,serif" font-size="12.00" fill="#000000">mbyte</text>
</g>
<!-- regex&#45;&gt;mbyte -->
<g id="edge18" class="edge">
<title>regex&#45;&gt;mbyte</title>
<path fill="none" stroke="#000000" d="M455.4173,-195.8161C453.1565,-205.335 449.8044,-219.5746 447,-232 442.9018,-250.1577 438.388,-271.0505 435.3934,-285.0457"/>
<polygon fill="#000000" stroke="#000000" points="433.6188,-284.9766 434.2857,-290.2318 437.0416,-285.7077 433.6188,-284.9766"/>
</g>
<!-- date -->
<g id="node5" class="node">
<title>date</title>
<path fill="none" stroke="#000000" stroke-width="1.5" d="M363,-232.5C363,-232.5 403,-232.5 403,-232.5 406.5,-232.5 410,-236 410,-239.5 410,-239.5 410,-246.5 410,-246.5 410,-250 406.5,-253.5 403,-253.5 403,-253.5 363,-253.5 363,-253.5 359.5,-253.5 356,-250 356,-246.5 356,-246.5 356,-239.5 356,-239.5 356,-236 359.5,-232.5 363,-232.5"/>
<text text-anchor="middle" x="383" y="-239.9" font-family="Times,serif" font-size="12.00" fill="#000000">date</text>
</g>
<!-- date&#45;&gt;string -->
<g id="edge3" class="edge">
<title>date&#45;&gt;string</title>
<path fill="none" stroke="#000000" d="M355.8695,-234.4652C353.2107,-233.6312 350.5532,-232.7986 348,-232 307.004,-219.1776 259.7204,-204.474 229.1454,-194.9774"/>
<polygon fill="#000000" stroke="#000000" points="229.3052,-193.1946 224.0112,-193.3828 228.2671,-196.5371 229.3052,-193.1946"/>
</g>
<!-- path -->
<g id="node6" class="node">
<title>path</title>
<path fill="none" stroke="#000000" stroke-width="1.5" d="M7,-232.5C7,-232.5 47,-232.5 47,-232.5 50.5,-232.5 54,-236 54,-239.5 54,-239.5 54,-246.5 54,-246.5 54,-250 50.5,-253.5 47,-253.5 47,-253.5 7,-253.5 7,-253.5 3.5,-253.5 0,-250 0,-246.5 0,-246.5 0,-239.5 0,-239.5 0,-236 3.5,-232.5 7,-232.5"/>
<text text-anchor="middle" x="27" y="-239.9" font-family="Times,serif" font-size="12.00" fill="#000000">path</text>
</g>
<!-- path&#45;&gt;string -->
<g id="edge4" class="edge">
<title>path&#45;&gt;string</title>
<path fill="none" stroke="#000000" d="M54.3134,-233.6813C84.4263,-223.4075 132.8283,-206.8939 164.7739,-195.9948"/>
<polygon fill="#000000" stroke="#000000" points="165.5873,-197.5664 169.7543,-194.2956 164.4571,-194.2539 165.5873,-197.5664"/>
</g>
<!-- file -->
<g id="node7" class="node">
<title>file</title>
<path fill="none" stroke="#000000" stroke-width="1.5" d="M107,-.5C107,-.5 147,-.5 147,-.5 150.5,-.5 154,-4 154,-7.5 154,-7.5 154,-14.5 154,-14.5 154,-18 150.5,-21.5 147,-21.5 147,-21.5 107,-21.5 107,-21.5 103.5,-21.5 100,-18 100,-14.5 100,-14.5 100,-7.5 100,-7.5 100,-4 103.5,-.5 107,-.5"/>
<text text-anchor="middle" x="127" y="-7.9" font-family="Times,serif" font-size="12.00" fill="#000000">file</text>
</g>
<!-- file&#45;&gt;string -->
<g id="edge5" class="edge">
<title>file&#45;&gt;string</title>
<path fill="none" stroke="#000000" d="M123.0351,-21.5711C118.4742,-35.3613 112.4101,-60.0783 119,-80 131.369,-117.3925 162.7797,-152.3132 181.7537,-170.9484"/>
<polygon fill="#000000" stroke="#000000" points="180.5642,-172.2326 185.3733,-174.4542 182.9993,-169.7185 180.5642,-172.2326"/>
</g>
<!-- hash -->
<g id="node8" class="node">
<title>hash</title>
<path fill="none" stroke="#000000" stroke-width="1.5" d="M75,-232.5C75,-232.5 115,-232.5 115,-232.5 118.5,-232.5 122,-236 122,-239.5 122,-239.5 122,-246.5 122,-246.5 122,-250 118.5,-253.5 115,-253.5 115,-253.5 75,-253.5 75,-253.5 71.5,-253.5 68,-250 68,-246.5 68,-246.5 68,-239.5 68,-239.5 68,-236 71.5,-232.5 75,-232.5"/>
<text text-anchor="middle" x="95" y="-239.9" font-family="Times,serif" font-size="12.00" fill="#000000">hash</text>
</g>
<!-- hash&#45;&gt;string -->
<g id="edge6" class="edge">
<title>hash&#45;&gt;string</title>
<path fill="none" stroke="#000000" d="M113.7084,-232.3619C130.6746,-222.7144 155.7406,-208.4612 173.9402,-198.1124"/>
<polygon fill="#000000" stroke="#000000" points="174.9288,-199.5635 178.4102,-195.5707 173.1987,-196.521 174.9288,-199.5635"/>
</g>
<!-- list -->
<g id="node9" class="node">
<title>list</title>
<path fill="none" stroke="#000000" stroke-width="1.5" d="M143,-232.5C143,-232.5 183,-232.5 183,-232.5 186.5,-232.5 190,-236 190,-239.5 190,-239.5 190,-246.5 190,-246.5 190,-250 186.5,-253.5 183,-253.5 183,-253.5 143,-253.5 143,-253.5 139.5,-253.5 136,-250 136,-246.5 136,-246.5 136,-239.5 136,-239.5 136,-236 139.5,-232.5 143,-232.5"/>
<text text-anchor="middle" x="163" y="-239.9" font-family="Times,serif" font-size="12.00" fill="#000000">list</text>
</g>
<!-- list&#45;&gt;string -->
<g id="edge7" class="edge">
<title>list&#45;&gt;string</title>
<path fill="none" stroke="#000000" d="M169.2361,-232.3619C174.5561,-223.2867 182.2651,-210.1361 188.2107,-199.9936"/>
<polygon fill="#000000" stroke="#000000" points="189.7845,-200.7692 190.8034,-195.5707 186.765,-198.9991 189.7845,-200.7692"/>
</g>
<!-- logging -->
<g id="node10" class="node">
<title>logging</title>
<path fill="none" stroke="#000000" stroke-width="1.5" d="M201,-58.5C201,-58.5 249,-58.5 249,-58.5 252.5,-58.5 256,-62 256,-65.5 256,-65.5 256,-72.5 256,-72.5 256,-76 252.5,-79.5 249,-79.5 249,-79.5 201,-79.5 201,-79.5 197.5,-79.5 194,-76 194,-72.5 194,-72.5 194,-65.5 194,-65.5 194,-62 197.5,-58.5 201,-58.5"/>
<text text-anchor="middle" x="225" y="-65.9" font-family="Times,serif" font-size="12.00" fill="#000000">logging</text>
</g>
<!-- logging&#45;&gt;string -->
<g id="edge11" class="edge">
<title>logging&#45;&gt;string</title>
<path fill="none" stroke="#000000" d="M221.8333,-79.7823C219.0882,-89.2796 215.0833,-103.5064 212,-116 207.54,-134.0723 203.0935,-154.981 200.2137,-169.0032"/>
<polygon fill="#000000" stroke="#000000" points="198.4383,-168.9516 199.1533,-174.2006 201.8676,-169.6513 198.4383,-168.9516"/>
</g>
<!-- logging&#45;&gt;file -->
<g id="edge8" class="edge">
<title>logging&#45;&gt;file</title>
<path fill="none" stroke="#000000" d="M207.0253,-58.3619C190.8625,-48.7962 167.049,-34.7025 149.6014,-24.3764"/>
<polygon fill="#000000" stroke="#000000" points="150.055,-22.6113 144.8608,-21.5707 148.2723,-25.6233 150.055,-22.6113"/>
</g>
<!-- message -->
<g id="node11" class="node">
<title>message</title>
<path fill="none" stroke="#000000" stroke-width="1.5" d="M186,-.5C186,-.5 240,-.5 240,-.5 243.5,-.5 247,-4 247,-7.5 247,-7.5 247,-14.5 247,-14.5 247,-18 243.5,-21.5 240,-21.5 240,-21.5 186,-21.5 186,-21.5 182.5,-21.5 179,-18 179,-14.5 179,-14.5 179,-7.5 179,-7.5 179,-4 182.5,-.5 186,-.5"/>
<text text-anchor="middle" x="213" y="-7.9" font-family="Times,serif" font-size="12.00" fill="#000000">message</text>
</g>
<!-- logging&#45;&gt;message -->
<g id="edge9" class="edge">
<title>logging&#45;&gt;message</title>
<path fill="none" stroke="#000000" d="M222.799,-58.3619C220.9552,-49.4502 218.2983,-36.6087 216.2161,-26.5447"/>
<polygon fill="#000000" stroke="#000000" points="217.9138,-26.1124 215.187,-21.5707 214.4864,-26.8215 217.9138,-26.1124"/>
</g>
<!-- queue -->
<g id="node12" class="node">
<title>queue</title>
<path fill="none" stroke="#000000" stroke-width="1.5" d="M279,-.5C279,-.5 319,-.5 319,-.5 322.5,-.5 326,-4 326,-7.5 326,-7.5 326,-14.5 326,-14.5 326,-18 322.5,-21.5 319,-21.5 319,-21.5 279,-21.5 279,-21.5 275.5,-21.5 272,-18 272,-14.5 272,-14.5 272,-7.5 272,-7.5 272,-4 275.5,-.5 279,-.5"/>
<text text-anchor="middle" x="299" y="-7.9" font-family="Times,serif" font-size="12.00" fill="#000000">queue</text>
</g>
<!-- logging&#45;&gt;queue -->
<g id="edge10" class="edge">
<title>logging&#45;&gt;queue</title>
<path fill="none" stroke="#000000" d="M238.5727,-58.3619C250.5687,-48.9597 268.1458,-35.183 281.2538,-24.9092"/>
<polygon fill="#000000" stroke="#000000" points="282.6576,-26.0325 285.5133,-21.5707 280.4985,-23.2777 282.6576,-26.0325"/>
</g>
<!-- mapping -->
<g id="node13" class="node">
<title>mapping</title>
<path fill="none" stroke="#000000" stroke-width="1.5" d="M279.5,-232.5C279.5,-232.5 334.5,-232.5 334.5,-232.5 338,-232.5 341.5,-236 341.5,-239.5 341.5,-239.5 341.5,-246.5 341.5,-246.5 341.5,-250 338,-253.5 334.5,-253.5 334.5,-253.5 279.5,-253.5 279.5,-253.5 276,-253.5 272.5,-250 272.5,-246.5 272.5,-246.5 272.5,-239.5 272.5,-239.5 272.5,-236 276,-232.5 279.5,-232.5"/>
<text text-anchor="middle" x="307" y="-239.9" font-family="Times,serif" font-size="12.00" fill="#000000">mapping</text>
</g>
<!-- mapping&#45;&gt;string -->
<g id="edge12" class="edge">
<title>mapping&#45;&gt;string</title>
<path fill="none" stroke="#000000" d="M287.0798,-232.4966C268.8158,-222.8665 241.694,-208.5659 221.9849,-198.1738"/>
<polygon fill="#000000" stroke="#000000" points="222.3828,-196.4053 217.1437,-195.6212 220.7503,-199.5013 222.3828,-196.4053"/>
</g>
<!-- mbyte&#45;&gt;buffer -->
<g id="edge13" class="edge">
<title>mbyte&#45;&gt;buffer</title>
<path fill="none" stroke="#000000" d="M404.7162,-293.6685C371.5732,-284.6826 314.0116,-268.8192 265,-254 264.2948,-253.7868 263.5819,-253.5697 262.8634,-253.3495"/>
<polygon fill="#000000" stroke="#000000" points="263.3598,-251.6712 258.0657,-251.8605 262.3223,-255.014 263.3598,-251.6712"/>
</g>
<!-- mbyte&#45;&gt;charset -->
<g id="edge14" class="edge">
<title>mbyte&#45;&gt;charset</title>
<path fill="none" stroke="#000000" d="M441.721,-290.3619C450.1633,-281.1232 462.4651,-267.6609 471.7972,-257.4483"/>
<polygon fill="#000000" stroke="#000000" points="473.2596,-258.4422 475.3406,-253.5707 470.6758,-256.0812 473.2596,-258.4422"/>
</g>
<!-- md5 -->
<g id="node15" class="node">
<title>md5</title>
<path fill="none" stroke="#000000" stroke-width="1.5" d="M347,-.5C347,-.5 387,-.5 387,-.5 390.5,-.5 394,-4 394,-7.5 394,-7.5 394,-14.5 394,-14.5 394,-18 390.5,-21.5 387,-21.5 387,-21.5 347,-21.5 347,-21.5 343.5,-21.5 340,-18 340,-14.5 340,-14.5 340,-7.5 340,-7.5 340,-4 343.5,-.5 347,-.5"/>
<text text-anchor="middle" x="367" y="-7.9" font-family="Times,serif" font-size="12.00" fill="#000000">md5</text>
</g>
<!-- memory&#45;&gt;logging -->
<g id="edge16" class="edge">
<title>memory&#45;&gt;logging</title>
<path fill="none" stroke="#000000" d="M247.0478,-116.3619C242.8612,-107.3685 236.8114,-94.3727 232.1077,-84.2684"/>
<polygon fill="#000000" stroke="#000000" points="233.6175,-83.365 229.9208,-79.5707 230.4445,-84.8421 233.6175,-83.365"/>
</g>
<!-- exit -->
<g id="node17" class="node">
<title>exit</title>
<path fill="none" stroke="#000000" stroke-width="1.5" d="M371,-58.5C371,-58.5 411,-58.5 411,-58.5 414.5,-58.5 418,-62 418,-65.5 418,-65.5 418,-72.5 418,-72.5 418,-76 414.5,-79.5 411,-79.5 411,-79.5 371,-79.5 371,-79.5 367.5,-79.5 364,-76 364,-72.5 364,-72.5 364,-65.5 364,-65.5 364,-62 367.5,-58.5 371,-58.5"/>
<text text-anchor="middle" x="391" y="-65.9" font-family="Times,serif" font-size="12.00" fill="#000000">exit</text>
</g>
<!-- memory&#45;&gt;exit -->
<g id="edge15" class="edge">
<title>memory&#45;&gt;exit</title>
<path fill="none" stroke="#000000" d="M277.1719,-116.4966C300.6422,-106.7033 335.688,-92.0798 360.6864,-81.6488"/>
<polygon fill="#000000" stroke="#000000" points="361.6052,-83.1618 365.5457,-79.6212 360.2574,-79.9317 361.6052,-83.1618"/>
</g>
<!-- parameter -->
<g id="node18" class="node">
<title>parameter</title>
<path fill="none" stroke="#000000" stroke-width="1.5" d="M277,-58.5C277,-58.5 343,-58.5 343,-58.5 346.5,-58.5 350,-62 350,-65.5 350,-65.5 350,-72.5 350,-72.5 350,-76 346.5,-79.5 343,-79.5 343,-79.5 277,-79.5 277,-79.5 273.5,-79.5 270,-76 270,-72.5 270,-72.5 270,-65.5 270,-65.5 270,-62 273.5,-58.5 277,-58.5"/>
<text text-anchor="middle" x="310" y="-65.9" font-family="Times,serif" font-size="12.00" fill="#000000">parameter</text>
</g>
<!-- parameter&#45;&gt;queue -->
<g id="edge17" class="edge">
<title>parameter&#45;&gt;queue</title>
<path fill="none" stroke="#000000" d="M307.9824,-58.3619C306.2923,-49.4502 303.8568,-36.6087 301.9481,-26.5447"/>
<polygon fill="#000000" stroke="#000000" points="303.6559,-26.157 301.0048,-21.5707 300.2172,-26.8092 303.6559,-26.157"/>
</g>
<!-- sha1 -->
<g id="node19" class="node">
<title>sha1</title>
<path fill="none" stroke="#000000" stroke-width="1.5" d="M415,-.5C415,-.5 455,-.5 455,-.5 458.5,-.5 462,-4 462,-7.5 462,-7.5 462,-14.5 462,-14.5 462,-18 458.5,-21.5 455,-21.5 455,-21.5 415,-21.5 415,-21.5 411.5,-21.5 408,-18 408,-14.5 408,-14.5 408,-7.5 408,-7.5 408,-4 411.5,-.5 415,-.5"/>
<text text-anchor="middle" x="435" y="-7.9" font-family="Times,serif" font-size="12.00" fill="#000000">sha1</text>
</g>
<!-- signal -->
<g id="node20" class="node">
<title>signal</title>
<path fill="none" stroke="#000000" stroke-width="1.5" d="M133,-58.5C133,-58.5 173,-58.5 173,-58.5 176.5,-58.5 180,-62 180,-65.5 180,-65.5 180,-72.5 180,-72.5 180,-76 176.5,-79.5 173,-79.5 173,-79.5 133,-79.5 133,-79.5 129.5,-79.5 126,-76 126,-72.5 126,-72.5 126,-65.5 126,-65.5 126,-62 129.5,-58.5 133,-58.5"/>
<text text-anchor="middle" x="153" y="-65.9" font-family="Times,serif" font-size="12.00" fill="#000000">signal</text>
</g>
<!-- signal&#45;&gt;message -->
<g id="edge19" class="edge">
<title>signal&#45;&gt;message</title>
<path fill="none" stroke="#000000" d="M164.0049,-58.3619C173.6468,-49.0415 187.7356,-35.4223 198.3331,-25.178"/>
<polygon fill="#000000" stroke="#000000" points="199.6862,-26.304 202.0648,-21.5707 197.2536,-23.7876 199.6862,-26.304"/>
</g>
</g>
</svg>
