<?xml version="1.0" encoding="UTF-8" standalone="no"?>
<!DOCTYPE svg PUBLIC "-//W3C//DTD SVG 1.1//EN"
 "http://www.w3.org/Graphics/SVG/1.1/DTD/svg11.dtd">
<!-- Generated by graphviz version 2.40.1 (20161225.0304)
 -->
<!-- Title: m2 Pages: 1 -->
<svg width="416pt" height="552pt"
 viewBox="0.00 0.00 416.00 552.00" xmlns="http://www.w3.org/2000/svg" xmlns:xlink="http://www.w3.org/1999/xlink">
<g id="graph0" class="graph" transform="scale(1 1) rotate(0) translate(4 548)">
<title>m2</title>
<polygon fill="#ffffff" stroke="transparent" points="-4,4 -4,-548 412,-548 412,4 -4,4"/>
<!-- address -->
<g id="node1" class="node">
<title>address</title>
<path fill="none" stroke="#000000" stroke-width="1.5" d="M26,-522.5C26,-522.5 76,-522.5 76,-522.5 79.5,-522.5 83,-526 83,-529.5 83,-529.5 83,-536.5 83,-536.5 83,-540 79.5,-543.5 76,-543.5 76,-543.5 26,-543.5 26,-543.5 22.5,-543.5 19,-540 19,-536.5 19,-536.5 19,-529.5 19,-529.5 19,-526 22.5,-522.5 26,-522.5"/>
<text text-anchor="middle" x="51" y="-529.9" font-family="Times,serif" font-size="12.00" fill="#000000">address</text>
</g>
<!-- idna -->
<g id="node2" class="node">
<title>idna</title>
<path fill="none" stroke="#000000" stroke-width="1.5" d="M31,-464.5C31,-464.5 71,-464.5 71,-464.5 74.5,-464.5 78,-468 78,-471.5 78,-471.5 78,-478.5 78,-478.5 78,-482 74.5,-485.5 71,-485.5 71,-485.5 31,-485.5 31,-485.5 27.5,-485.5 24,-482 24,-478.5 24,-478.5 24,-471.5 24,-471.5 24,-468 27.5,-464.5 31,-464.5"/>
<text text-anchor="middle" x="51" y="-471.9" font-family="Times,serif" font-size="12.00" fill="#000000">idna</text>
</g>
<!-- address&#45;&gt;idna -->
<g id="edge1" class="edge">
<title>address&#45;&gt;idna</title>
<path fill="none" stroke="#000000" d="M51,-522.3619C51,-513.532 51,-500.844 51,-490.8224"/>
<polygon fill="#000000" stroke="#000000" points="52.7501,-490.5706 51,-485.5707 49.2501,-490.5707 52.7501,-490.5706"/>
</g>
<!-- charset -->
<g id="node5" class="node">
<title>charset</title>
<path fill="none" stroke="#000000" stroke-width="1.5" d="M27,-406.5C27,-406.5 75,-406.5 75,-406.5 78.5,-406.5 82,-410 82,-413.5 82,-413.5 82,-420.5 82,-420.5 82,-424 78.5,-427.5 75,-427.5 75,-427.5 27,-427.5 27,-427.5 23.5,-427.5 20,-424 20,-420.5 20,-420.5 20,-413.5 20,-413.5 20,-410 23.5,-406.5 27,-406.5"/>
<text text-anchor="middle" x="51" y="-413.9" font-family="Times,serif" font-size="12.00" fill="#000000">charset</text>
</g>
<!-- idna&#45;&gt;charset -->
<g id="edge7" class="edge">
<title>idna&#45;&gt;charset</title>
<path fill="none" stroke="#000000" d="M51,-464.3619C51,-455.532 51,-442.844 51,-432.8224"/>
<polygon fill="#000000" stroke="#000000" points="52.7501,-432.5706 51,-427.5707 49.2501,-432.5707 52.7501,-432.5706"/>
</g>
<!-- buffer -->
<g id="node3" class="node">
<title>buffer</title>
<path fill="none" stroke="#000000" stroke-width="1.5" d="M31,-232.5C31,-232.5 71,-232.5 71,-232.5 74.5,-232.5 78,-236 78,-239.5 78,-239.5 78,-246.5 78,-246.5 78,-250 74.5,-253.5 71,-253.5 71,-253.5 31,-253.5 31,-253.5 27.5,-253.5 24,-250 24,-246.5 24,-246.5 24,-239.5 24,-239.5 24,-236 27.5,-232.5 31,-232.5"/>
<text text-anchor="middle" x="51" y="-239.9" font-family="Times,serif" font-size="12.00" fill="#000000">buffer</text>
</g>
<!-- string -->
<g id="node4" class="node">
<title>string</title>
<path fill="none" stroke="#000000" stroke-width="1.5" d="M167,-174.5C167,-174.5 207,-174.5 207,-174.5 210.5,-174.5 214,-178 214,-181.5 214,-181.5 214,-188.5 214,-188.5 214,-192 210.5,-195.5 207,-195.5 207,-195.5 167,-195.5 167,-195.5 163.5,-195.5 160,-192 160,-188.5 160,-188.5 160,-181.5 160,-181.5 160,-178 163.5,-174.5 167,-174.5"/>
<text text-anchor="middle" x="187" y="-181.9" font-family="Times,serif" font-size="12.00" fill="#000000">string</text>
</g>
<!-- buffer&#45;&gt;string -->
<g id="edge2" class="edge">
<title>buffer&#45;&gt;string</title>
<path fill="none" stroke="#000000" d="M75.6286,-232.4966C98.5923,-222.7033 132.8818,-208.0798 157.3406,-197.6488"/>
<polygon fill="#000000" stroke="#000000" points="158.1824,-199.1924 162.0951,-195.6212 156.8093,-195.973 158.1824,-199.1924"/>
</g>
<!-- memory -->
<g id="node17" class="node">
<title>memory</title>
<path fill="none" stroke="#000000" stroke-width="1.5" d="M216,-116.5C216,-116.5 268,-116.5 268,-116.5 271.5,-116.5 275,-120 275,-123.5 275,-123.5 275,-130.5 275,-130.5 275,-134 271.5,-137.5 268,-137.5 268,-137.5 216,-137.5 216,-137.5 212.5,-137.5 209,-134 209,-130.5 209,-130.5 209,-123.5 209,-123.5 209,-120 212.5,-116.5 216,-116.5"/>
<text text-anchor="middle" x="242" y="-123.9" font-family="Times,serif" font-size="12.00" fill="#000000">memory</text>
</g>
<!-- string&#45;&gt;memory -->
<g id="edge24" class="edge">
<title>string&#45;&gt;memory</title>
<path fill="none" stroke="#000000" d="M197.0878,-174.3619C205.8487,-165.1232 218.6147,-151.6609 228.299,-141.4483"/>
<polygon fill="#000000" stroke="#000000" points="229.8055,-142.403 231.9761,-137.5707 227.2658,-139.9946 229.8055,-142.403"/>
</g>
<!-- regex -->
<g id="node6" class="node">
<title>regex</title>
<path fill="none" stroke="#000000" stroke-width="1.5" d="M7,-348.5C7,-348.5 47,-348.5 47,-348.5 50.5,-348.5 54,-352 54,-355.5 54,-355.5 54,-362.5 54,-362.5 54,-366 50.5,-369.5 47,-369.5 47,-369.5 7,-369.5 7,-369.5 3.5,-369.5 0,-366 0,-362.5 0,-362.5 0,-355.5 0,-355.5 0,-352 3.5,-348.5 7,-348.5"/>
<text text-anchor="middle" x="27" y="-355.9" font-family="Times,serif" font-size="12.00" fill="#000000">regex</text>
</g>
<!-- charset&#45;&gt;regex -->
<g id="edge3" class="edge">
<title>charset&#45;&gt;regex</title>
<path fill="none" stroke="#000000" d="M46.598,-406.3619C42.8766,-397.3685 37.499,-384.3727 33.318,-374.2684"/>
<polygon fill="#000000" stroke="#000000" points="34.9029,-373.5216 31.3741,-369.5707 31.6689,-374.8599 34.9029,-373.5216"/>
</g>
<!-- mbyte -->
<g id="node15" class="node">
<title>mbyte</title>
<path fill="none" stroke="#000000" stroke-width="1.5" d="M31,-290.5C31,-290.5 71,-290.5 71,-290.5 74.5,-290.5 78,-294 78,-297.5 78,-297.5 78,-304.5 78,-304.5 78,-308 74.5,-311.5 71,-311.5 71,-311.5 31,-311.5 31,-311.5 27.5,-311.5 24,-308 24,-304.5 24,-304.5 24,-297.5 24,-297.5 24,-294 27.5,-290.5 31,-290.5"/>
<text text-anchor="middle" x="51" y="-297.9" font-family="Times,serif" font-size="12.00" fill="#000000">mbyte</text>
</g>
<!-- regex&#45;&gt;mbyte -->
<g id="edge19" class="edge">
<title>regex&#45;&gt;mbyte</title>
<path fill="none" stroke="#000000" d="M31.402,-348.3619C35.1234,-339.3685 40.501,-326.3727 44.682,-316.2684"/>
<polygon fill="#000000" stroke="#000000" points="46.3311,-316.8599 46.6259,-311.5707 43.0971,-315.5216 46.3311,-316.8599"/>
</g>
<!-- date -->
<g id="node7" class="node">
<title>date</title>
<path fill="none" stroke="#000000" stroke-width="1.5" d="M99,-232.5C99,-232.5 139,-232.5 139,-232.5 142.5,-232.5 146,-236 146,-239.5 146,-239.5 146,-246.5 146,-246.5 146,-250 142.5,-253.5 139,-253.5 139,-253.5 99,-253.5 99,-253.5 95.5,-253.5 92,-250 92,-246.5 92,-246.5 92,-239.5 92,-239.5 92,-236 95.5,-232.5 99,-232.5"/>
<text text-anchor="middle" x="119" y="-239.9" font-family="Times,serif" font-size="12.00" fill="#000000">date</text>
</g>
<!-- date&#45;&gt;string -->
<g id="edge4" class="edge">
<title>date&#45;&gt;string</title>
<path fill="none" stroke="#000000" d="M131.4722,-232.3619C142.4955,-222.9597 158.6475,-209.183 170.6927,-198.9092"/>
<polygon fill="#000000" stroke="#000000" points="171.9383,-200.1469 174.6068,-195.5707 169.667,-197.484 171.9383,-200.1469"/>
</g>
<!-- file -->
<g id="node8" class="node">
<title>file</title>
<path fill="none" stroke="#000000" stroke-width="1.5" d="M97,-.5C97,-.5 137,-.5 137,-.5 140.5,-.5 144,-4 144,-7.5 144,-7.5 144,-14.5 144,-14.5 144,-18 140.5,-21.5 137,-21.5 137,-21.5 97,-21.5 97,-21.5 93.5,-21.5 90,-18 90,-14.5 90,-14.5 90,-7.5 90,-7.5 90,-4 93.5,-.5 97,-.5"/>
<text text-anchor="middle" x="117" y="-7.9" font-family="Times,serif" font-size="12.00" fill="#000000">file</text>
</g>
<!-- file&#45;&gt;string -->
<g id="edge5" class="edge">
<title>file&#45;&gt;string</title>
<path fill="none" stroke="#000000" d="M113.0351,-21.5711C108.4742,-35.3613 102.4101,-60.0783 109,-80 121.369,-117.3925 152.7797,-152.3132 171.7537,-170.9484"/>
<polygon fill="#000000" stroke="#000000" points="170.5642,-172.2326 175.3733,-174.4542 172.9993,-169.7185 170.5642,-172.2326"/>
</g>
<!-- hash -->
<g id="node9" class="node">
<title>hash</title>
<path fill="none" stroke="#000000" stroke-width="1.5" d="M167,-232.5C167,-232.5 207,-232.5 207,-232.5 210.5,-232.5 214,-236 214,-239.5 214,-239.5 214,-246.5 214,-246.5 214,-250 210.5,-253.5 207,-253.5 207,-253.5 167,-253.5 167,-253.5 163.5,-253.5 160,-250 160,-246.5 160,-246.5 160,-239.5 160,-239.5 160,-236 163.5,-232.5 167,-232.5"/>
<text text-anchor="middle" x="187" y="-239.9" font-family="Times,serif" font-size="12.00" fill="#000000">hash</text>
</g>
<!-- hash&#45;&gt;string -->
<g id="edge6" class="edge">
<title>hash&#45;&gt;string</title>
<path fill="none" stroke="#000000" d="M187,-232.3619C187,-223.532 187,-210.844 187,-200.8224"/>
<polygon fill="#000000" stroke="#000000" points="188.7501,-200.5706 187,-195.5707 185.2501,-200.5707 188.7501,-200.5706"/>
</g>
<!-- list -->
<g id="node10" class="node">
<title>list</title>
<path fill="none" stroke="#000000" stroke-width="1.5" d="M235,-232.5C235,-232.5 275,-232.5 275,-232.5 278.5,-232.5 282,-236 282,-239.5 282,-239.5 282,-246.5 282,-246.5 282,-250 278.5,-253.5 275,-253.5 275,-253.5 235,-253.5 235,-253.5 231.5,-253.5 228,-250 228,-246.5 228,-246.5 228,-239.5 228,-239.5 228,-236 231.5,-232.5 235,-232.5"/>
<text text-anchor="middle" x="255" y="-239.9" font-family="Times,serif" font-size="12.00" fill="#000000">list</text>
</g>
<!-- list&#45;&gt;string -->
<g id="edge8" class="edge">
<title>list&#45;&gt;string</title>
<path fill="none" stroke="#000000" d="M242.5278,-232.3619C231.5045,-222.9597 215.3525,-209.183 203.3073,-198.9092"/>
<polygon fill="#000000" stroke="#000000" points="204.333,-197.484 199.3932,-195.5707 202.0617,-200.1469 204.333,-197.484"/>
</g>
<!-- logging -->
<g id="node11" class="node">
<title>logging</title>
<path fill="none" stroke="#000000" stroke-width="1.5" d="M191,-58.5C191,-58.5 239,-58.5 239,-58.5 242.5,-58.5 246,-62 246,-65.5 246,-65.5 246,-72.5 246,-72.5 246,-76 242.5,-79.5 239,-79.5 239,-79.5 191,-79.5 191,-79.5 187.5,-79.5 184,-76 184,-72.5 184,-72.5 184,-65.5 184,-65.5 184,-62 187.5,-58.5 191,-58.5"/>
<text text-anchor="middle" x="215" y="-65.9" font-family="Times,serif" font-size="12.00" fill="#000000">logging</text>
</g>
<!-- logging&#45;&gt;string -->
<g id="edge12" class="edge">
<title>logging&#45;&gt;string</title>
<path fill="none" stroke="#000000" d="M211.8333,-79.7823C209.0882,-89.2796 205.0833,-103.5064 202,-116 197.54,-134.0723 193.0935,-154.981 190.2137,-169.0032"/>
<polygon fill="#000000" stroke="#000000" points="188.4383,-168.9516 189.1533,-174.2006 191.8676,-169.6513 188.4383,-168.9516"/>
</g>
<!-- logging&#45;&gt;file -->
<g id="edge9" class="edge">
<title>logging&#45;&gt;file</title>
<path fill="none" stroke="#000000" d="M197.0253,-58.3619C180.8625,-48.7962 157.049,-34.7025 139.6014,-24.3764"/>
<polygon fill="#000000" stroke="#000000" points="140.055,-22.6113 134.8608,-21.5707 138.2723,-25.6233 140.055,-22.6113"/>
</g>
<!-- message -->
<g id="node12" class="node">
<title>message</title>
<path fill="none" stroke="#000000" stroke-width="1.5" d="M176,-.5C176,-.5 230,-.5 230,-.5 233.5,-.5 237,-4 237,-7.5 237,-7.5 237,-14.5 237,-14.5 237,-18 233.5,-21.5 230,-21.5 230,-21.5 176,-21.5 176,-21.5 172.5,-21.5 169,-18 169,-14.5 169,-14.5 169,-7.5 169,-7.5 169,-4 172.5,-.5 176,-.5"/>
<text text-anchor="middle" x="203" y="-7.9" font-family="Times,serif" font-size="12.00" fill="#000000">message</text>
</g>
<!-- logging&#45;&gt;message -->
<g id="edge10" class="edge">
<title>logging&#45;&gt;message</title>
<path fill="none" stroke="#000000" d="M212.799,-58.3619C210.9552,-49.4502 208.2983,-36.6087 206.2161,-26.5447"/>
<polygon fill="#000000" stroke="#000000" points="207.9138,-26.1124 205.187,-21.5707 204.4864,-26.8215 207.9138,-26.1124"/>
</g>
<!-- queue -->
<g id="node13" class="node">
<title>queue</title>
<path fill="none" stroke="#000000" stroke-width="1.5" d="M269,-.5C269,-.5 309,-.5 309,-.5 312.5,-.5 316,-4 316,-7.5 316,-7.5 316,-14.5 316,-14.5 316,-18 312.5,-21.5 309,-21.5 309,-21.5 269,-21.5 269,-21.5 265.5,-21.5 262,-18 262,-14.5 262,-14.5 262,-7.5 262,-7.5 262,-4 265.5,-.5 269,-.5"/>
<text text-anchor="middle" x="289" y="-7.9" font-family="Times,serif" font-size="12.00" fill="#000000">queue</text>
</g>
<!-- logging&#45;&gt;queue -->
<g id="edge11" class="edge">
<title>logging&#45;&gt;queue</title>
<path fill="none" stroke="#000000" d="M228.5727,-58.3619C240.5687,-48.9597 258.1458,-35.183 271.2538,-24.9092"/>
<polygon fill="#000000" stroke="#000000" points="272.6576,-26.0325 275.5133,-21.5707 270.4985,-23.2777 272.6576,-26.0325"/>
</g>
<!-- mapping -->
<g id="node14" class="node">
<title>mapping</title>
<path fill="none" stroke="#000000" stroke-width="1.5" d="M303.5,-232.5C303.5,-232.5 358.5,-232.5 358.5,-232.5 362,-232.5 365.5,-236 365.5,-239.5 365.5,-239.5 365.5,-246.5 365.5,-246.5 365.5,-250 362,-253.5 358.5,-253.5 358.5,-253.5 303.5,-253.5 303.5,-253.5 300,-253.5 296.5,-250 296.5,-246.5 296.5,-246.5 296.5,-239.5 296.5,-239.5 296.5,-236 300,-232.5 303.5,-232.5"/>
<text text-anchor="middle" x="331" y="-239.9" font-family="Times,serif" font-size="12.00" fill="#000000">mapping</text>
</g>
<!-- mapping&#45;&gt;string -->
<g id="edge13" class="edge">
<title>mapping&#45;&gt;string</title>
<path fill="none" stroke="#000000" d="M304.9227,-232.4966C280.5068,-222.6625 243.9989,-207.9579 218.0809,-197.5187"/>
<polygon fill="#000000" stroke="#000000" points="218.6617,-195.8661 213.3699,-195.6212 217.354,-199.1126 218.6617,-195.8661"/>
</g>
<!-- mbyte&#45;&gt;buffer -->
<g id="edge14" class="edge">
<title>mbyte&#45;&gt;buffer</title>
<path fill="none" stroke="#000000" d="M51,-290.3619C51,-281.532 51,-268.844 51,-258.8224"/>
<polygon fill="#000000" stroke="#000000" points="52.7501,-258.5706 51,-253.5707 49.2501,-258.5707 52.7501,-258.5706"/>
</g>
<!-- mbyte&#45;&gt;charset -->
<g id="edge15" class="edge">
<title>mbyte&#45;&gt;charset</title>
<path fill="none" stroke="#000000" d="M53.9533,-311.7243C56.3966,-321.1844 59.6733,-335.3892 61,-348 62.023,-357.7241 62.023,-360.2759 61,-370 59.8909,-380.5418 57.4193,-392.1976 55.2109,-401.2645"/>
<polygon fill="#000000" stroke="#000000" points="53.473,-401.0001 53.9533,-406.2757 56.8678,-401.8521 53.473,-401.0001"/>
</g>
<!-- md5 -->
<g id="node16" class="node">
<title>md5</title>
<path fill="none" stroke="#000000" stroke-width="1.5" d="M104,-522.5C104,-522.5 144,-522.5 144,-522.5 147.5,-522.5 151,-526 151,-529.5 151,-529.5 151,-536.5 151,-536.5 151,-540 147.5,-543.5 144,-543.5 144,-543.5 104,-543.5 104,-543.5 100.5,-543.5 97,-540 97,-536.5 97,-536.5 97,-529.5 97,-529.5 97,-526 100.5,-522.5 104,-522.5"/>
<text text-anchor="middle" x="124" y="-529.9" font-family="Times,serif" font-size="12.00" fill="#000000">md5</text>
</g>
<!-- memory&#45;&gt;logging -->
<g id="edge17" class="edge">
<title>memory&#45;&gt;logging</title>
<path fill="none" stroke="#000000" d="M237.0478,-116.3619C232.8612,-107.3685 226.8114,-94.3727 222.1077,-84.2684"/>
<polygon fill="#000000" stroke="#000000" points="223.6175,-83.365 219.9208,-79.5707 220.4445,-84.8421 223.6175,-83.365"/>
</g>
<!-- exit -->
<g id="node18" class="node">
<title>exit</title>
<path fill="none" stroke="#000000" stroke-width="1.5" d="M361,-58.5C361,-58.5 401,-58.5 401,-58.5 404.5,-58.5 408,-62 408,-65.5 408,-65.5 408,-72.5 408,-72.5 408,-76 404.5,-79.5 401,-79.5 401,-79.5 361,-79.5 361,-79.5 357.5,-79.5 354,-76 354,-72.5 354,-72.5 354,-65.5 354,-65.5 354,-62 357.5,-58.5 361,-58.5"/>
<text text-anchor="middle" x="381" y="-65.9" font-family="Times,serif" font-size="12.00" fill="#000000">exit</text>
</g>
<!-- memory&#45;&gt;exit -->
<g id="edge16" class="edge">
<title>memory&#45;&gt;exit</title>
<path fill="none" stroke="#000000" d="M267.1719,-116.4966C290.6422,-106.7033 325.688,-92.0798 350.6864,-81.6488"/>
<polygon fill="#000000" stroke="#000000" points="351.6052,-83.1618 355.5457,-79.6212 350.2574,-79.9317 351.6052,-83.1618"/>
</g>
<!-- parameter -->
<g id="node19" class="node">
<title>parameter</title>
<path fill="none" stroke="#000000" stroke-width="1.5" d="M267,-58.5C267,-58.5 333,-58.5 333,-58.5 336.5,-58.5 340,-62 340,-65.5 340,-65.5 340,-72.5 340,-72.5 340,-76 336.5,-79.5 333,-79.5 333,-79.5 267,-79.5 267,-79.5 263.5,-79.5 260,-76 260,-72.5 260,-72.5 260,-65.5 260,-65.5 260,-62 263.5,-58.5 267,-58.5"/>
<text text-anchor="middle" x="300" y="-65.9" font-family="Times,serif" font-size="12.00" fill="#000000">parameter</text>
</g>
<!-- parameter&#45;&gt;queue -->
<g id="edge18" class="edge">
<title>parameter&#45;&gt;queue</title>
<path fill="none" stroke="#000000" d="M297.9824,-58.3619C296.2923,-49.4502 293.8568,-36.6087 291.9481,-26.5447"/>
<polygon fill="#000000" stroke="#000000" points="293.6559,-26.157 291.0048,-21.5707 290.2172,-26.8092 293.6559,-26.157"/>
</g>
<!-- rfc2047 -->
<g id="node20" class="node">
<title>rfc2047</title>
<path fill="none" stroke="#000000" stroke-width="1.5" d="M99,-464.5C99,-464.5 149,-464.5 149,-464.5 152.5,-464.5 156,-468 156,-471.5 156,-471.5 156,-478.5 156,-478.5 156,-482 152.5,-485.5 149,-485.5 149,-485.5 99,-485.5 99,-485.5 95.5,-485.5 92,-482 92,-478.5 92,-478.5 92,-471.5 92,-471.5 92,-468 95.5,-464.5 99,-464.5"/>
<text text-anchor="middle" x="124" y="-471.9" font-family="Times,serif" font-size="12.00" fill="#000000">rfc2047</text>
</g>
<!-- rfc2047&#45;&gt;charset -->
<g id="edge21" class="edge">
<title>rfc2047&#45;&gt;charset</title>
<path fill="none" stroke="#000000" d="M110.6107,-464.3619C98.7769,-454.9597 81.4372,-441.183 68.5064,-430.9092"/>
<polygon fill="#000000" stroke="#000000" points="69.3079,-429.3109 64.3044,-427.5707 67.1306,-432.0512 69.3079,-429.3109"/>
</g>
<!-- base64 -->
<g id="node21" class="node">
<title>base64</title>
<path fill="none" stroke="#000000" stroke-width="1.5" d="M171.5,-406.5C171.5,-406.5 216.5,-406.5 216.5,-406.5 220,-406.5 223.5,-410 223.5,-413.5 223.5,-413.5 223.5,-420.5 223.5,-420.5 223.5,-424 220,-427.5 216.5,-427.5 216.5,-427.5 171.5,-427.5 171.5,-427.5 168,-427.5 164.5,-424 164.5,-420.5 164.5,-420.5 164.5,-413.5 164.5,-413.5 164.5,-410 168,-406.5 171.5,-406.5"/>
<text text-anchor="middle" x="194" y="-413.9" font-family="Times,serif" font-size="12.00" fill="#000000">base64</text>
</g>
<!-- rfc2047&#45;&gt;base64 -->
<g id="edge20" class="edge">
<title>rfc2047&#45;&gt;base64</title>
<path fill="none" stroke="#000000" d="M136.8391,-464.3619C148.1866,-454.9597 164.8136,-441.183 177.2131,-430.9092"/>
<polygon fill="#000000" stroke="#000000" points="178.5087,-432.1083 181.2423,-427.5707 176.2756,-429.4132 178.5087,-432.1083"/>
</g>
<!-- mime -->
<g id="node22" class="node">
<title>mime</title>
<path fill="none" stroke="#000000" stroke-width="1.5" d="M103,-406.5C103,-406.5 143,-406.5 143,-406.5 146.5,-406.5 150,-410 150,-413.5 150,-413.5 150,-420.5 150,-420.5 150,-424 146.5,-427.5 143,-427.5 143,-427.5 103,-427.5 103,-427.5 99.5,-427.5 96,-424 96,-420.5 96,-420.5 96,-413.5 96,-413.5 96,-410 99.5,-406.5 103,-406.5"/>
<text text-anchor="middle" x="123" y="-413.9" font-family="Times,serif" font-size="12.00" fill="#000000">mime</text>
</g>
<!-- rfc2047&#45;&gt;mime -->
<g id="edge22" class="edge">
<title>rfc2047&#45;&gt;mime</title>
<path fill="none" stroke="#000000" d="M123.8166,-464.3619C123.6643,-455.532 123.4456,-442.844 123.2728,-432.8224"/>
<polygon fill="#000000" stroke="#000000" points="125.0183,-432.5397 123.1823,-427.5707 121.5188,-432.6001 125.0183,-432.5397"/>
</g>
<!-- sha1 -->
<g id="node23" class="node">
<title>sha1</title>
<path fill="none" stroke="#000000" stroke-width="1.5" d="M172,-522.5C172,-522.5 212,-522.5 212,-522.5 215.5,-522.5 219,-526 219,-529.5 219,-529.5 219,-536.5 219,-536.5 219,-540 215.5,-543.5 212,-543.5 212,-543.5 172,-543.5 172,-543.5 168.5,-543.5 165,-540 165,-536.5 165,-536.5 165,-529.5 165,-529.5 165,-526 168.5,-522.5 172,-522.5"/>
<text text-anchor="middle" x="192" y="-529.9" font-family="Times,serif" font-size="12.00" fill="#000000">sha1</text>
</g>
<!-- signal -->
<g id="node24" class="node">
<title>signal</title>
<path fill="none" stroke="#000000" stroke-width="1.5" d="M123,-58.5C123,-58.5 163,-58.5 163,-58.5 166.5,-58.5 170,-62 170,-65.5 170,-65.5 170,-72.5 170,-72.5 170,-76 166.5,-79.5 163,-79.5 163,-79.5 123,-79.5 123,-79.5 119.5,-79.5 116,-76 116,-72.5 116,-72.5 116,-65.5 116,-65.5 116,-62 119.5,-58.5 123,-58.5"/>
<text text-anchor="middle" x="143" y="-65.9" font-family="Times,serif" font-size="12.00" fill="#000000">signal</text>
</g>
<!-- signal&#45;&gt;message -->
<g id="edge23" class="edge">
<title>signal&#45;&gt;message</title>
<path fill="none" stroke="#000000" d="M154.0049,-58.3619C163.6468,-49.0415 177.7356,-35.4223 188.3331,-25.178"/>
<polygon fill="#000000" stroke="#000000" points="189.6862,-26.304 192.0648,-21.5707 187.2536,-23.7876 189.6862,-26.304"/>
</g>
</g>
</svg>
